<svg width="1440" height="446" viewBox="0 0 1440 446" fill="none" xmlns="http://www.w3.org/2000/svg">
<g opacity="0.8">
<mask id="path-1-inside-1_23_2424" fill="white">
<path d="M0 232H107.909V356H0V232Z"/>
</mask>
<path d="M0 232H107.909V356H0V232Z" fill="url(#paint0_linear_23_2424)" fill-opacity="0.1"/>
<path d="M0 232V231.5H-0.5V232H0ZM0 356H-0.5V356.5H0V356ZM0 232H-0.5V233.938H0H0.5V232H0ZM0 237.812H-0.5V241.688H0H0.5V237.812H0ZM0 245.562H-0.5V249.438H0H0.5V245.562H0ZM0 253.312H-0.5V257.188H0H0.5V253.312H0ZM0 261.062H-0.5V264.938H0H0.5V261.062H0ZM0 268.812H-0.5V272.688H0H0.5V268.812H0ZM0 276.562H-0.5V280.438H0H0.5V276.562H0ZM0 284.312H-0.5V288.188H0H0.5V284.312H0ZM0 292.062H-0.5V295.938H0H0.5V292.062H0ZM0 299.812H-0.5V303.688H0H0.5V299.812H0ZM0 307.562H-0.5V311.438H0H0.5V307.562H0ZM0 315.312H-0.5V319.188H0H0.5V315.312H0ZM0 323.062H-0.5V326.938H0H0.5V323.062H0ZM0 330.812H-0.5V334.688H0H0.5V330.812H0ZM0 338.562H-0.5V342.438H0H0.5V338.562H0ZM0 346.312H-0.5V350.188H0H0.5V346.312H0ZM0 354.062H-0.5V356H0H0.5V354.062H0ZM0 356V356.5H2.07517V356V355.5H0V356ZM6.22552 356V356.5H10.3759V356V355.5H6.22552V356ZM14.5262 356V356.5H18.6766V356V355.5H14.5262V356ZM22.8269 356V356.5H26.9773V356V355.5H22.8269V356ZM31.1276 356V356.5H35.278V356V355.5H31.1276V356ZM39.4283 356V356.5H43.5787V356V355.5H39.4283V356ZM47.729 356V356.5H51.8794V356V355.5H47.729V356ZM56.0297 356V356.5H60.1801V356V355.5H56.0297V356ZM64.3304 356V356.5H68.4808V356V355.5H64.3304V356ZM72.6311 356V356.5H76.7815V356V355.5H72.6311V356ZM80.9318 356V356.5H85.0822V356V355.5H80.9318V356ZM89.2325 356V356.5H93.3829V356V355.5H89.2325V356ZM97.5332 356V356.5H101.684V356V355.5H97.5332V356ZM105.834 356V356.5H107.909V356V355.5H105.834V356ZM107.909 232V231.5H105.834V232V232.5H107.909V232ZM101.684 232V231.5H97.5332V232V232.5H101.684V232ZM93.3829 232V231.5H89.2325V232V232.5H93.3829V232ZM85.0822 232V231.5H80.9318V232V232.5H85.0822V232ZM76.7815 232V231.5H72.6311V232V232.5H76.7815V232ZM68.4808 232V231.5H64.3304V232V232.5H68.4808V232ZM60.1801 232V231.5H56.0297V232V232.5H60.1801V232ZM51.8794 232V231.5H47.729V232V232.5H51.8794V232ZM43.5787 232V231.5H39.4283V232V232.5H43.5787V232ZM35.278 232V231.5H31.1276V232V232.5H35.278V232ZM26.9773 232V231.5H22.8269V232V232.5H26.9773V232ZM18.6766 232V231.5H14.5262V232V232.5H18.6766V232ZM10.3759 232V231.5H6.2255V232V232.5H10.3759V232ZM2.07515 232V231.5H0V232V232.5H2.07515V232ZM0 232V231H-1V232H0ZM0 356H-1V357H0V356ZM0 232H-1V233.938H0H1V232H0ZM0 237.812H-1V241.688H0H1V237.812H0ZM0 245.562H-1V249.438H0H1V245.562H0ZM0 253.312H-1V257.188H0H1V253.312H0ZM0 261.062H-1V264.938H0H1V261.062H0ZM0 268.812H-1V272.688H0H1V268.812H0ZM0 276.562H-1V280.438H0H1V276.562H0ZM0 284.312H-1V288.188H0H1V284.312H0ZM0 292.062H-1V295.938H0H1V292.062H0ZM0 299.812H-1V303.688H0H1V299.812H0ZM0 307.562H-1V311.438H0H1V307.562H0ZM0 315.312H-1V319.188H0H1V315.312H0ZM0 323.062H-1V326.938H0H1V323.062H0ZM0 330.812H-1V334.688H0H1V330.812H0ZM0 338.562H-1V342.438H0H1V338.562H0ZM0 346.312H-1V350.188H0H1V346.312H0ZM0 354.062H-1V356H0H1V354.062H0ZM0 356V357H2.07517V356V355H0V356ZM6.22552 356V357H10.3759V356V355H6.22552V356ZM14.5262 356V357H18.6766V356V355H14.5262V356ZM22.8269 356V357H26.9773V356V355H22.8269V356ZM31.1276 356V357H35.278V356V355H31.1276V356ZM39.4283 356V357H43.5787V356V355H39.4283V356ZM47.729 356V357H51.8794V356V355H47.729V356ZM56.0297 356V357H60.1801V356V355H56.0297V356ZM64.3304 356V357H68.4808V356V355H64.3304V356ZM72.6311 356V357H76.7815V356V355H72.6311V356ZM80.9318 356V357H85.0822V356V355H80.9318V356ZM89.2325 356V357H93.3829V356V355H89.2325V356ZM97.5332 356V357H101.684V356V355H97.5332V356ZM105.834 356V357H107.909V356V355H105.834V356ZM107.909 232V231H105.834V232V233H107.909V232ZM101.684 232V231H97.5332V232V233H101.684V232ZM93.3829 232V231H89.2325V232V233H93.3829V232ZM85.0822 232V231H80.9318V232V233H85.0822V232ZM76.7815 232V231H72.6311V232V233H76.7815V232ZM68.4808 232V231H64.3304V232V233H68.4808V232ZM60.1801 232V231H56.0297V232V233H60.1801V232ZM51.8794 232V231H47.729V232V233H51.8794V232ZM43.5787 232V231H39.4283V232V233H43.5787V232ZM35.278 232V231H31.1276V232V233H35.278V232ZM26.9773 232V231H22.8269V232V233H26.9773V232ZM18.6766 232V231H14.5262V232V233H18.6766V232ZM10.3759 232V231H6.2255V232V233H10.3759V232ZM2.07515 232V231H0V232V233H2.07515V232Z" fill="url(#paint1_linear_23_2424)" fill-opacity="0.32" mask="url(#path-1-inside-1_23_2424)"/>
<path d="M130.909 252.554L107.909 232V356H130.909V252.554Z" fill="url(#paint2_linear_23_2424)" fill-opacity="0.1"/>
<path d="M109.014 233.657L109.346 233.284L112.221 235.854L111.889 236.227L114.764 238.796L115.096 238.423L117.971 240.992L117.639 241.365L120.514 243.935L120.846 243.562L123.721 246.131L123.389 246.504L126.264 249.073L126.596 248.7L129.471 251.27L129.139 251.643L130.409 252.777V254.544H130.909V258.522H130.409V262.501H130.909V266.479H130.409V270.458H130.909V274.438H130.409V278.416H130.909V282.395H130.409V286.373H130.909V290.352H130.409V294.33H130.909V298.31H130.409V302.288H130.909V306.267H130.409V310.245H130.909V314.224H130.409V318.202H130.909V322.182H130.409V326.16H130.909V330.139H130.409V334.117H130.909V338.096H130.409V342.074H130.909V346.054H130.409V350.032H130.909V354.011H130.409V355.5H128.992V356H125.159V355.5H121.326V356H117.492V355.5H113.659V356H109.826V355.5H108.409V354.062H107.909V350.188H108.409V346.312H107.909V342.438H108.409V338.562H107.909V334.688H108.409V330.812H107.909V326.938H108.409V323.062H107.909V319.188H108.409V315.312H107.909V311.438H108.409V307.562H107.909V303.688H108.409V299.812H107.909V295.938H108.409V292.062H107.909V288.188H108.409V284.312H107.909V280.438H108.409V276.562H107.909V272.688H108.409V268.812H107.909V264.938H108.409V261.062H107.909V257.188H108.409V253.312H107.909V249.438H108.409V245.562H107.909V241.688H108.409V237.812H107.909V233.938H108.409V233.117L109.014 233.657Z" stroke="url(#paint3_linear_23_2424)" stroke-opacity="0.32" stroke-dasharray="4 4"/>
<path d="M107.409 356.5V445.5H0.5V356.5H107.409Z" fill="url(#paint4_linear_23_2424)" stroke="url(#paint5_linear_23_2424)"/>
<path d="M130.409 371.189V445.5H108.409V356.921L130.409 371.189Z" fill="url(#paint6_linear_23_2424)" stroke="url(#paint7_linear_23_2424)"/>
</g>
<g opacity="0.8">
<mask id="path-7-inside-2_23_2424" fill="white">
<path d="M130.909 300H238.818V376H130.909V300Z"/>
</mask>
<path d="M130.909 300H238.818V376H130.909V300Z" fill="url(#paint8_linear_23_2424)" fill-opacity="0.1"/>
<path d="M130.909 376V376.5H132.984V376V375.5H130.909V376ZM137.135 376V376.5H141.285V376V375.5H137.135V376ZM145.435 376V376.5H149.586V376V375.5H145.435V376ZM153.736 376V376.5H157.886V376V375.5H153.736V376ZM162.037 376V376.5H166.187V376V375.5H162.037V376ZM170.337 376V376.5H174.488V376V375.5H170.337V376ZM178.638 376V376.5H182.789V376V375.5H178.638V376ZM186.939 376V376.5H191.089V376V375.5H186.939V376ZM195.24 376V376.5H199.39V376V375.5H195.24V376ZM203.54 376V376.5H207.691V376V375.5H203.54V376ZM211.841 376V376.5H215.991V376V375.5H211.841V376ZM220.142 376V376.5H224.292V376V375.5H220.142V376ZM228.442 376V376.5H232.593V376V375.5H228.442V376ZM236.743 376V376.5H238.818V376V375.5H236.743V376ZM238.818 300V299.5H236.743V300V300.5H238.818V300ZM232.593 300V299.5H228.442V300V300.5H232.593V300ZM224.292 300V299.5H220.142V300V300.5H224.292V300ZM215.991 300V299.5H211.841V300V300.5H215.991V300ZM207.691 300V299.5H203.54V300V300.5H207.691V300ZM199.39 300V299.5H195.24V300V300.5H199.39V300ZM191.089 300V299.5H186.939V300V300.5H191.089V300ZM182.789 300V299.5H178.638V300V300.5H182.789V300ZM174.488 300V299.5H170.338V300V300.5H174.488V300ZM166.187 300V299.5H162.037V300V300.5H166.187V300ZM157.886 300V299.5H153.736V300V300.5H157.886V300ZM149.586 300V299.5H145.435V300V300.5H149.586V300ZM141.285 300V299.5H137.135V300V300.5H141.285V300ZM132.984 300V299.5H130.909V300V300.5H132.984V300ZM130.909 376V377H132.984V376V375H130.909V376ZM137.135 376V377H141.285V376V375H137.135V376ZM145.435 376V377H149.586V376V375H145.435V376ZM153.736 376V377H157.886V376V375H153.736V376ZM162.037 376V377H166.187V376V375H162.037V376ZM170.337 376V377H174.488V376V375H170.337V376ZM178.638 376V377H182.789V376V375H178.638V376ZM186.939 376V377H191.089V376V375H186.939V376ZM195.24 376V377H199.39V376V375H195.24V376ZM203.54 376V377H207.691V376V375H203.54V376ZM211.841 376V377H215.991V376V375H211.841V376ZM220.142 376V377H224.292V376V375H220.142V376ZM228.442 376V377H232.593V376V375H228.442V376ZM236.743 376V377H238.818V376V375H236.743V376ZM238.818 300V299H236.743V300V301H238.818V300ZM232.593 300V299H228.442V300V301H232.593V300ZM224.292 300V299H220.142V300V301H224.292V300ZM215.991 300V299H211.841V300V301H215.991V300ZM207.691 300V299H203.54V300V301H207.691V300ZM199.39 300V299H195.24V300V301H199.39V300ZM191.089 300V299H186.939V300V301H191.089V300ZM182.789 300V299H178.638V300V301H182.789V300ZM174.488 300V299H170.338V300V301H174.488V300ZM166.187 300V299H162.037V300V301H166.187V300ZM157.886 300V299H153.736V300V301H157.886V300ZM149.586 300V299H145.435V300V301H149.586V300ZM141.285 300V299H137.135V300V301H141.285V300ZM132.984 300V299H130.909V300V301H132.984V300Z" fill="url(#paint9_linear_23_2424)" fill-opacity="0.32" mask="url(#path-7-inside-2_23_2424)"/>
<path d="M261.818 312.598L238.818 300V376H261.818V312.598Z" fill="url(#paint10_linear_23_2424)" fill-opacity="0.1"/>
<path d="M240.734 301.05L244.568 303.149L244.328 303.588L248.161 305.688L248.401 305.249V305.248L252.234 307.349H252.235L251.995 307.787L255.828 309.887L256.068 309.448L259.901 311.547V311.548L259.661 311.986L261.318 312.894V314.579H261.818V318.542H261.318V322.505H261.818V326.467H261.318V330.43H261.818V334.393H261.318V338.354H261.818V342.317H261.318V346.28H261.818V350.243H261.318V354.205H261.818V358.168H261.318V362.131H261.818V366.094H261.318V370.056H261.818V374.019H261.318V375.5H259.901V376H256.068V375.5H252.235V376H248.401V375.5H244.568V376H240.735V375.5H239.318V374.1H238.818V370.3H239.318V366.5H238.818V362.7H239.318V358.9H238.818V355.1H239.318V351.3H238.818V347.5H239.318V343.7H238.818V339.9H239.318V336.1H238.818V332.3H239.318V328.5H238.818V324.7H239.318V320.9H238.818V317.1H239.318V313.3H238.818V309.5H239.318V305.7H238.818V301.9H239.318V300.844L240.495 301.488L240.734 301.05Z" stroke="url(#paint11_linear_23_2424)" stroke-opacity="0.32" stroke-dasharray="4 4"/>
<path d="M238.318 376.5V445.5H131.409V376.5H238.318Z" fill="url(#paint12_linear_23_2424)" stroke="url(#paint13_linear_23_2424)"/>
<path d="M261.318 387.911V445.5H239.318V376.812L261.318 387.911Z" fill="url(#paint14_linear_23_2424)" stroke="url(#paint15_linear_23_2424)"/>
</g>
<g opacity="0.8">
<mask id="path-13-inside-3_23_2424" fill="white">
<path d="M261.818 209H369.727V333H261.818V209Z"/>
</mask>
<path d="M261.818 209H369.727V333H261.818V209Z" fill="url(#paint16_linear_23_2424)" fill-opacity="0.1"/>
<path d="M261.818 209V208.5H261.318V209H261.818ZM261.818 333H261.318V333.5H261.818V333ZM261.818 209H261.318V210.938H261.818H262.318V209H261.818ZM261.818 214.812H261.318V218.688H261.818H262.318V214.812H261.818ZM261.818 222.562H261.318V226.438H261.818H262.318V222.562H261.818ZM261.818 230.312H261.318V234.188H261.818H262.318V230.312H261.818ZM261.818 238.062H261.318V241.938H261.818H262.318V238.062H261.818ZM261.818 245.812H261.318V249.688H261.818H262.318V245.812H261.818ZM261.818 253.562H261.318V257.438H261.818H262.318V253.562H261.818ZM261.818 261.312H261.318V265.188H261.818H262.318V261.312H261.818ZM261.818 269.062H261.318V272.938H261.818H262.318V269.062H261.818ZM261.818 276.812H261.318V280.688H261.818H262.318V276.812H261.818ZM261.818 284.562H261.318V288.438H261.818H262.318V284.562H261.818ZM261.818 292.312H261.318V296.188H261.818H262.318V292.312H261.818ZM261.818 300.062H261.318V303.938H261.818H262.318V300.062H261.818ZM261.818 307.812H261.318V311.688H261.818H262.318V307.812H261.818ZM261.818 315.562H261.318V319.438H261.818H262.318V315.562H261.818ZM261.818 323.312H261.318V327.188H261.818H262.318V323.312H261.818ZM261.818 331.062H261.318V333H261.818H262.318V331.062H261.818ZM261.818 333V333.5H263.894V333V332.5H261.818V333ZM268.044 333V333.5H272.194V333V332.5H268.044V333ZM276.345 333V333.5H280.495V333V332.5H276.345V333ZM284.645 333V333.5H288.796V333V332.5H284.645V333ZM292.946 333V333.5H297.096V333V332.5H292.946V333ZM301.247 333V333.5H305.397V333V332.5H301.247V333ZM309.547 333V333.5H313.698V333V332.5H309.547V333ZM317.848 333V333.5H321.998V333V332.5H317.848V333ZM326.149 333V333.5H330.299V333V332.5H326.149V333ZM334.449 333V333.5H338.6V333V332.5H334.449V333ZM342.75 333V333.5H346.901V333V332.5H342.75V333ZM351.051 333V333.5H355.201V333V332.5H351.051V333ZM359.352 333V333.5H363.502V333V332.5H359.352V333ZM367.652 333V333.5H369.727V333V332.5H367.652V333ZM369.727 209V208.5H367.652V209V209.5H369.727V209ZM363.502 209V208.5H359.352V209V209.5H363.502V209ZM355.201 209V208.5H351.051V209V209.5H355.201V209ZM346.901 209V208.5H342.75V209V209.5H346.901V209ZM338.6 209V208.5H334.449V209V209.5H338.6V209ZM330.299 209V208.5H326.149V209V209.5H330.299V209ZM321.998 209V208.5H317.848V209V209.5H321.998V209ZM313.698 209V208.5H309.547V209V209.5H313.698V209ZM305.397 209V208.5H301.247V209V209.5H305.397V209ZM297.096 209V208.5H292.946V209V209.5H297.096V209ZM288.796 209V208.5H284.645V209V209.5H288.796V209ZM280.495 209V208.5H276.345V209V209.5H280.495V209ZM272.194 209V208.5H268.044V209V209.5H272.194V209ZM263.894 209V208.5H261.818V209V209.5H263.894V209ZM261.818 209V208H260.818V209H261.818ZM261.818 333H260.818V334H261.818V333ZM261.818 209H260.818V210.938H261.818H262.818V209H261.818ZM261.818 214.812H260.818V218.688H261.818H262.818V214.812H261.818ZM261.818 222.562H260.818V226.438H261.818H262.818V222.562H261.818ZM261.818 230.312H260.818V234.188H261.818H262.818V230.312H261.818ZM261.818 238.062H260.818V241.938H261.818H262.818V238.062H261.818ZM261.818 245.812H260.818V249.688H261.818H262.818V245.812H261.818ZM261.818 253.562H260.818V257.438H261.818H262.818V253.562H261.818ZM261.818 261.312H260.818V265.188H261.818H262.818V261.312H261.818ZM261.818 269.062H260.818V272.938H261.818H262.818V269.062H261.818ZM261.818 276.812H260.818V280.688H261.818H262.818V276.812H261.818ZM261.818 284.562H260.818V288.438H261.818H262.818V284.562H261.818ZM261.818 292.312H260.818V296.188H261.818H262.818V292.312H261.818ZM261.818 300.062H260.818V303.938H261.818H262.818V300.062H261.818ZM261.818 307.812H260.818V311.688H261.818H262.818V307.812H261.818ZM261.818 315.562H260.818V319.438H261.818H262.818V315.562H261.818ZM261.818 323.312H260.818V327.188H261.818H262.818V323.312H261.818ZM261.818 331.062H260.818V333H261.818H262.818V331.062H261.818ZM261.818 333V334H263.894V333V332H261.818V333ZM268.044 333V334H272.194V333V332H268.044V333ZM276.345 333V334H280.495V333V332H276.345V333ZM284.645 333V334H288.796V333V332H284.645V333ZM292.946 333V334H297.096V333V332H292.946V333ZM301.247 333V334H305.397V333V332H301.247V333ZM309.547 333V334H313.698V333V332H309.547V333ZM317.848 333V334H321.998V333V332H317.848V333ZM326.149 333V334H330.299V333V332H326.149V333ZM334.449 333V334H338.6V333V332H334.449V333ZM342.75 333V334H346.901V333V332H342.75V333ZM351.051 333V334H355.201V333V332H351.051V333ZM359.352 333V334H363.502V333V332H359.352V333ZM367.652 333V334H369.727V333V332H367.652V333ZM369.727 209V208H367.652V209V210H369.727V209ZM363.502 209V208H359.352V209V210H363.502V209ZM355.201 209V208H351.051V209V210H355.201V209ZM346.901 209V208H342.75V209V210H346.901V209ZM338.6 209V208H334.449V209V210H338.6V209ZM330.299 209V208H326.149V209V210H330.299V209ZM321.998 209V208H317.848V209V210H321.998V209ZM313.698 209V208H309.547V209V210H313.698V209ZM305.397 209V208H301.247V209V210H305.397V209ZM297.096 209V208H292.946V209V210H297.096V209ZM288.796 209V208H284.645V209V210H288.796V209ZM280.495 209V208H276.345V209V210H280.495V209ZM272.194 209V208H268.044V209V210H272.194V209ZM263.894 209V208H261.818V209V210H263.894V209Z" fill="url(#paint17_linear_23_2424)" fill-opacity="0.32" mask="url(#path-13-inside-3_23_2424)"/>
<path d="M392.728 229.554L369.728 209V333H392.728V229.554Z" fill="url(#paint18_linear_23_2424)" fill-opacity="0.1"/>
<path d="M370.832 210.657L371.164 210.284L374.039 212.854L373.707 213.227L376.582 215.796L376.914 215.423L379.789 217.992L379.457 218.365L382.332 220.935L382.664 220.562L385.539 223.131L385.207 223.504L388.082 226.073L388.414 225.7L391.289 228.27L390.957 228.643L392.228 229.777V231.544H392.728V235.522H392.228V239.501H392.728V243.479H392.228V247.458H392.728V251.438H392.228V255.416H392.728V259.395H392.228V263.373H392.728V267.352H392.228V271.33H392.728V275.31H392.228V279.288H392.728V283.267H392.228V287.245H392.728V291.224H392.228V295.202H392.728V299.182H392.228V303.16H392.728V307.139H392.228V311.117H392.728V315.096H392.228V319.074H392.728V323.054H392.228V327.032H392.728V331.011H392.228V332.5H390.811V333H386.978V332.5H383.145V333H379.311V332.5H375.478V333H371.645V332.5H370.228V331.062H369.728V327.188H370.228V323.312H369.728V319.438H370.228V315.562H369.728V311.688H370.228V307.812H369.728V303.938H370.228V300.062H369.728V296.188H370.228V292.312H369.728V288.438H370.228V284.562H369.728V280.688H370.228V276.812H369.728V272.938H370.228V269.062H369.728V265.188H370.228V261.312H369.728V257.438H370.228V253.562H369.728V249.688H370.228V245.812H369.728V241.938H370.228V238.062H369.728V234.188H370.228V230.312H369.728V226.438H370.228V222.562H369.728V218.688H370.228V214.812H369.728V210.938H370.228V210.117L370.832 210.657Z" stroke="url(#paint19_linear_23_2424)" stroke-opacity="0.32" stroke-dasharray="4 4"/>
<path d="M369.228 333.5V445.5H262.318V333.5H369.228Z" fill="url(#paint20_linear_23_2424)" stroke="url(#paint21_linear_23_2424)"/>
<path d="M392.228 351.969V445.5H370.228V334.052L392.228 351.969Z" fill="url(#paint22_linear_23_2424)" stroke="url(#paint23_linear_23_2424)"/>
</g>
<g opacity="0.8">
<mask id="path-19-inside-4_23_2424" fill="white">
<path d="M392.728 259H499.637V316H392.728V259Z"/>
</mask>
<path d="M392.728 259H499.637V316H392.728V259Z" fill="url(#paint24_linear_23_2424)" fill-opacity="0.1"/>
<path d="M392.728 259V258.5H392.228V259H392.728ZM392.728 316H392.228V316.5H392.728V316ZM392.728 259H392.228V261.036H392.728H393.228V259H392.728ZM392.728 265.107H392.228V269.179H392.728H393.228V265.107H392.728ZM392.728 273.25H392.228V277.321H392.728H393.228V273.25H392.728ZM392.728 281.393H392.228V285.464H392.728H393.228V281.393H392.728ZM392.728 289.536H392.228V293.607H392.728H393.228V289.536H392.728ZM392.728 297.679H392.228V301.75H392.728H393.228V297.679H392.728ZM392.728 305.821H392.228V309.893H392.728H393.228V305.821H392.728ZM392.728 313.964H392.228V316H392.728H393.228V313.964H392.728ZM392.728 316V316.5H394.783V316V315.5H392.728V316ZM398.895 316V316.5H403.007V316V315.5H398.895V316ZM407.119 316V316.5H411.231V316V315.5H407.119V316ZM415.343 316V316.5H419.455V316V315.5H415.343V316ZM423.567 316V316.5H427.679V316V315.5H423.567V316ZM431.79 316V316.5H435.902V316V315.5H431.79V316ZM440.014 316V316.5H444.126V316V315.5H440.014V316ZM448.238 316V316.5H452.35V316V315.5H448.238V316ZM456.462 316V316.5H460.574V316V315.5H456.462V316ZM464.686 316V316.5H468.797V316V315.5H464.686V316ZM472.909 316V316.5H477.021V316V315.5H472.909V316ZM481.133 316V316.5H485.245V316V315.5H481.133V316ZM489.357 316V316.5H493.469V316V315.5H489.357V316ZM497.581 316V316.5H499.637V316V315.5H497.581V316ZM499.637 259V258.5H497.581V259V259.5H499.637V259ZM493.469 259V258.5H489.357V259V259.5H493.469V259ZM485.245 259V258.5H481.133V259V259.5H485.245V259ZM477.021 259V258.5H472.909V259V259.5H477.021V259ZM468.797 259V258.5H464.686V259V259.5H468.797V259ZM460.574 259V258.5H456.462V259V259.5H460.574V259ZM452.35 259V258.5H448.238V259V259.5H452.35V259ZM444.126 259V258.5H440.014V259V259.5H444.126V259ZM435.902 259V258.5H431.79V259V259.5H435.902V259ZM427.679 259V258.5H423.567V259V259.5H427.679V259ZM419.455 259V258.5H415.343V259V259.5H419.455V259ZM411.231 259V258.5H407.119V259V259.5H411.231V259ZM403.007 259V258.5H398.895V259V259.5H403.007V259ZM394.784 259V258.5H392.728V259V259.5H394.784V259ZM392.728 259V258H391.728V259H392.728ZM392.728 316H391.728V317H392.728V316ZM392.728 259H391.728V261.036H392.728H393.728V259H392.728ZM392.728 265.107H391.728V269.179H392.728H393.728V265.107H392.728ZM392.728 273.25H391.728V277.321H392.728H393.728V273.25H392.728ZM392.728 281.393H391.728V285.464H392.728H393.728V281.393H392.728ZM392.728 289.536H391.728V293.607H392.728H393.728V289.536H392.728ZM392.728 297.679H391.728V301.75H392.728H393.728V297.679H392.728ZM392.728 305.821H391.728V309.893H392.728H393.728V305.821H392.728ZM392.728 313.964H391.728V316H392.728H393.728V313.964H392.728ZM392.728 316V317H394.783V316V315H392.728V316ZM398.895 316V317H403.007V316V315H398.895V316ZM407.119 316V317H411.231V316V315H407.119V316ZM415.343 316V317H419.455V316V315H415.343V316ZM423.567 316V317H427.679V316V315H423.567V316ZM431.79 316V317H435.902V316V315H431.79V316ZM440.014 316V317H444.126V316V315H440.014V316ZM448.238 316V317H452.35V316V315H448.238V316ZM456.462 316V317H460.574V316V315H456.462V316ZM464.686 316V317H468.797V316V315H464.686V316ZM472.909 316V317H477.021V316V315H472.909V316ZM481.133 316V317H485.245V316V315H481.133V316ZM489.357 316V317H493.469V316V315H489.357V316ZM497.581 316V317H499.637V316V315H497.581V316ZM499.637 259V258H497.581V259V260H499.637V259ZM493.469 259V258H489.357V259V260H493.469V259ZM485.245 259V258H481.133V259V260H485.245V259ZM477.021 259V258H472.909V259V260H477.021V259ZM468.797 259V258H464.686V259V260H468.797V259ZM460.574 259V258H456.462V259V260H460.574V259ZM452.35 259V258H448.238V259V260H452.35V259ZM444.126 259V258H440.014V259V260H444.126V259ZM435.902 259V258H431.79V259V260H435.902V259ZM427.679 259V258H423.567V259V260H427.679V259ZM419.455 259V258H415.343V259V260H419.455V259ZM411.231 259V258H407.119V259V260H411.231V259ZM403.007 259V258H398.895V259V260H403.007V259ZM394.784 259V258H392.728V259V260H394.784V259Z" fill="url(#paint25_linear_23_2424)" fill-opacity="0.32" mask="url(#path-19-inside-4_23_2424)"/>
<path d="M523.637 268.448L499.637 259V316H523.637V268.448Z" fill="url(#paint26_linear_23_2424)" fill-opacity="0.1"/>
<path d="M501.453 260.253L501.636 259.787L505.637 261.361V261.362L505.453 261.827L509.453 263.402L509.636 262.937L513.637 264.511V264.512L513.453 264.977L517.453 266.552L517.636 266.086L521.637 267.66V267.661L521.453 268.126L523.137 268.789V270.43H523.637V274.393H523.137V278.354H523.637V282.317H523.137V286.28H523.637V290.243H523.137V294.205H523.637V298.168H523.137V302.131H523.637V306.094H523.137V310.056H523.637V314.019H523.137V315.5H521.637V316H517.637V315.5H513.637V316H509.637V315.5H505.637V316H501.637V315.5H500.137V313.964H499.637V309.893H500.137V305.821H499.637V301.75H500.137V297.679H499.637V293.607H500.137V289.536H499.637V285.464H500.137V281.393H499.637V277.321H500.137V273.25H499.637V269.179H500.137V265.107H499.637V261.036H500.137V259.733L501.453 260.253Z" stroke="url(#paint27_linear_23_2424)" stroke-opacity="0.32" stroke-dasharray="4 4"/>
<path d="M499.137 316.5V445.5H393.228V316.5H499.137Z" fill="url(#paint28_linear_23_2424)" stroke="url(#paint29_linear_23_2424)"/>
<path d="M523.137 337.771V445.5H500.137V317.12L523.137 337.771Z" fill="url(#paint30_linear_23_2424)" stroke="url(#paint31_linear_23_2424)"/>
</g>
<g opacity="0.8">
<mask id="path-25-inside-5_23_2424" fill="white">
<path d="M523.637 136H630.546V198H523.637V136Z"/>
</mask>
<path d="M523.637 136H630.546V198H523.637V136Z" fill="url(#paint32_linear_23_2424)" fill-opacity="0.1"/>
<path d="M523.637 136V135.5H523.137V136H523.637ZM523.637 198H523.137V198.5H523.637V198ZM523.637 136H523.137V137.938H523.637H524.137V136H523.637ZM523.637 141.812H523.137V145.688H523.637H524.137V141.812H523.637ZM523.637 149.562H523.137V153.438H523.637H524.137V149.562H523.637ZM523.637 157.312H523.137V161.188H523.637H524.137V157.312H523.637ZM523.637 165.062H523.137V168.938H523.637H524.137V165.062H523.637ZM523.637 172.812H523.137V176.688H523.637H524.137V172.812H523.637ZM523.637 180.562H523.137V184.438H523.637H524.137V180.562H523.637ZM523.637 188.312H523.137V192.188H523.637H524.137V188.312H523.637ZM523.637 196.062H523.137V198H523.637H524.137V196.062H523.637ZM523.637 198V198.5H525.693V198V197.5H523.637V198ZM529.805 198V198.5H533.916V198V197.5H529.805V198ZM538.028 198V198.5H542.14V198V197.5H538.028V198ZM546.252 198V198.5H550.364V198V197.5H546.252V198ZM554.476 198V198.5H558.588V198V197.5H554.476V198ZM562.7 198V198.5H566.812V198V197.5H562.7V198ZM570.923 198V198.5H575.035V198V197.5H570.923V198ZM579.147 198V198.5H583.259V198V197.5H579.147V198ZM587.371 198V198.5H591.483V198V197.5H587.371V198ZM595.595 198V198.5H599.707V198V197.5H595.595V198ZM603.819 198V198.5H607.93V198V197.5H603.819V198ZM612.042 198V198.5H616.154V198V197.5H612.042V198ZM620.266 198V198.5H624.378V198V197.5H620.266V198ZM628.49 198V198.5H630.546V198V197.5H628.49V198ZM630.546 136V135.5H628.49V136V136.5H630.546V136ZM624.378 136V135.5H620.266V136V136.5H624.378V136ZM616.154 136V135.5H612.042V136V136.5H616.154V136ZM607.93 136V135.5H603.819V136V136.5H607.93V136ZM599.707 136V135.5H595.595V136V136.5H599.707V136ZM591.483 136V135.5H587.371V136V136.5H591.483V136ZM583.259 136V135.5H579.147V136V136.5H583.259V136ZM575.035 136V135.5H570.923V136V136.5H575.035V136ZM566.812 136V135.5H562.7V136V136.5H566.812V136ZM558.588 136V135.5H554.476V136V136.5H558.588V136ZM550.364 136V135.5H546.252V136V136.5H550.364V136ZM542.14 136V135.5H538.028V136V136.5H542.14V136ZM533.916 136V135.5H529.805V136V136.5H533.916V136ZM525.693 136V135.5H523.637V136V136.5H525.693V136ZM523.637 136V135H522.637V136H523.637ZM523.637 198H522.637V199H523.637V198ZM523.637 136H522.637V137.938H523.637H524.637V136H523.637ZM523.637 141.812H522.637V145.688H523.637H524.637V141.812H523.637ZM523.637 149.562H522.637V153.438H523.637H524.637V149.562H523.637ZM523.637 157.312H522.637V161.188H523.637H524.637V157.312H523.637ZM523.637 165.062H522.637V168.938H523.637H524.637V165.062H523.637ZM523.637 172.812H522.637V176.688H523.637H524.637V172.812H523.637ZM523.637 180.562H522.637V184.438H523.637H524.637V180.562H523.637ZM523.637 188.312H522.637V192.188H523.637H524.637V188.312H523.637ZM523.637 196.062H522.637V198H523.637H524.637V196.062H523.637ZM523.637 198V199H525.693V198V197H523.637V198ZM529.805 198V199H533.916V198V197H529.805V198ZM538.028 198V199H542.14V198V197H538.028V198ZM546.252 198V199H550.364V198V197H546.252V198ZM554.476 198V199H558.588V198V197H554.476V198ZM562.7 198V199H566.812V198V197H562.7V198ZM570.923 198V199H575.035V198V197H570.923V198ZM579.147 198V199H583.259V198V197H579.147V198ZM587.371 198V199H591.483V198V197H587.371V198ZM595.595 198V199H599.707V198V197H595.595V198ZM603.819 198V199H607.93V198V197H603.819V198ZM612.042 198V199H616.154V198V197H612.042V198ZM620.266 198V199H624.378V198V197H620.266V198ZM628.49 198V199H630.546V198V197H628.49V198ZM630.546 136V135H628.49V136V137H630.546V136ZM624.378 136V135H620.266V136V137H624.378V136ZM616.154 136V135H612.042V136V137H616.154V136ZM607.93 136V135H603.819V136V137H607.93V136ZM599.707 136V135H595.595V136V137H599.707V136ZM591.483 136V135H587.371V136V137H591.483V136ZM583.259 136V135H579.147V136V137H583.259V136ZM575.035 136V135H570.923V136V137H575.035V136ZM566.812 136V135H562.7V136V137H566.812V136ZM558.588 136V135H554.476V136V137H558.588V136ZM550.364 136V135H546.252V136V137H550.364V136ZM542.14 136V135H538.028V136V137H542.14V136ZM533.916 136V135H529.805V136V137H533.916V136ZM525.693 136V135H523.637V136V137H525.693V136Z" fill="url(#paint33_linear_23_2424)" fill-opacity="0.32" mask="url(#path-25-inside-5_23_2424)"/>
<path d="M654.546 146.277L630.546 136V198H654.546V146.277Z" fill="url(#paint34_linear_23_2424)" fill-opacity="0.1"/>
<path d="M632.349 137.316L632.546 136.856L636.546 138.569L636.349 139.029L640.349 140.742L640.546 140.282L644.546 141.995L644.349 142.455L648.349 144.168L648.546 143.708L652.546 145.421L652.349 145.881L654.046 146.606V148.433H654.546V152.742H654.046V157.053H654.546V161.363H654.046V165.673H654.546V169.983H654.046V174.294H654.546V178.604H654.046V182.914H654.546V187.225H654.046V191.534H654.546V195.845H654.046V197.5H652.546V198H648.546V197.5H644.546V198H640.546V197.5H636.546V198H632.546V197.5H631.046V196.062H630.546V192.188H631.046V188.312H630.546V184.438H631.046V180.562H630.546V176.688H631.046V172.812H630.546V168.938H631.046V165.062H630.546V161.188H631.046V157.312H630.546V153.438H631.046V149.562H630.546V145.688H631.046V141.812H630.546V137.938H631.046V136.758L632.349 137.316Z" stroke="url(#paint35_linear_23_2424)" stroke-opacity="0.32" stroke-dasharray="4 4"/>
<path d="M630.046 198.5V445.5H524.137V198.5H630.046Z" fill="url(#paint36_linear_23_2424)" stroke="url(#paint37_linear_23_2424)"/>
<path d="M654.046 239.243V445.5H631.046V199.848L654.046 239.243Z" fill="url(#paint38_linear_23_2424)" stroke="url(#paint39_linear_23_2424)"/>
</g>
<mask id="path-31-inside-6_23_2424" fill="white">
<path d="M654.546 7H761.455V120H654.546V7Z"/>
</mask>
<path d="M654.546 7H761.455V120H654.546V7Z" fill="url(#paint40_linear_23_2424)" fill-opacity="0.5"/>
<path d="M654.546 7V6.5H654.046V7H654.546ZM654.546 120H654.046V120.5H654.546V120ZM654.546 7H654.046V9.01786H654.546H655.046V7H654.546ZM654.546 13.0536H654.046V17.0893H654.546H655.046V13.0536H654.546ZM654.546 21.125H654.046V25.1607H654.546H655.046V21.125H654.546ZM654.546 29.1964H654.046V33.2321H654.546H655.046V29.1964H654.546ZM654.546 37.2679H654.046V41.3036H654.546H655.046V37.2679H654.546ZM654.546 45.3393H654.046V49.375H654.546H655.046V45.3393H654.546ZM654.546 53.4107H654.046V57.4464H654.546H655.046V53.4107H654.546ZM654.546 61.4821H654.046V65.5178H654.546H655.046V61.4821H654.546ZM654.546 69.5536H654.046V73.5893H654.546H655.046V69.5536H654.546ZM654.546 77.625H654.046V81.6607H654.546H655.046V77.625H654.546ZM654.546 85.6964H654.046V89.7321H654.546H655.046V85.6964H654.546ZM654.546 93.7678H654.046V97.8036H654.546H655.046V93.7678H654.546ZM654.546 101.839H654.046V105.875H654.546H655.046V101.839H654.546ZM654.546 109.911H654.046V113.946H654.546H655.046V109.911H654.546ZM654.546 117.982H654.046V120H654.546H655.046V117.982H654.546ZM654.546 120V120.5H656.602V120V119.5H654.546V120ZM660.714 120V120.5H664.826V120V119.5H660.714V120ZM668.938 120V120.5H673.049V120V119.5H668.938V120ZM677.161 120V120.5H681.273V120V119.5H677.161V120ZM685.385 120V120.5H689.497V120V119.5H685.385V120ZM693.609 120V120.5H697.721V120V119.5H693.609V120ZM701.833 120V120.5H705.945V120V119.5H701.833V120ZM710.056 120V120.5H714.168V120V119.5H710.056V120ZM718.28 120V120.5H722.392V120V119.5H718.28V120ZM726.504 120V120.5H730.616V120V119.5H726.504V120ZM734.728 120V120.5H738.84V120V119.5H734.728V120ZM742.951 120V120.5H747.063V120V119.5H742.951V120ZM751.175 120V120.5H755.287V120V119.5H751.175V120ZM759.399 120V120.5H761.455V120V119.5H759.399V120ZM761.455 7V6.5H759.399V7V7.5H761.455V7ZM755.287 7V6.5H751.175V7V7.5H755.287V7ZM747.063 7V6.5H742.952V7V7.5H747.063V7ZM738.84 7V6.5H734.728V7V7.5H738.84V7ZM730.616 7V6.5H726.504V7V7.5H730.616V7ZM722.392 7V6.5H718.28V7V7.5H722.392V7ZM714.168 7V6.5H710.056V7V7.5H714.168V7ZM705.945 7V6.5H701.833V7V7.5H705.945V7ZM697.721 7V6.5H693.609V7V7.5H697.721V7ZM689.497 7V6.5H685.385V7V7.5H689.497V7ZM681.273 7V6.5H677.161V7V7.5H681.273V7ZM673.049 7V6.5H668.938V7V7.5H673.049V7ZM664.826 7V6.5H660.714V7V7.5H664.826V7ZM656.602 7V6.5H654.546V7V7.5H656.602V7ZM654.546 7V6H653.546V7H654.546ZM654.546 120H653.546V121H654.546V120ZM654.546 7H653.546V9.01786H654.546H655.546V7H654.546ZM654.546 13.0536H653.546V17.0893H654.546H655.546V13.0536H654.546ZM654.546 21.125H653.546V25.1607H654.546H655.546V21.125H654.546ZM654.546 29.1964H653.546V33.2321H654.546H655.546V29.1964H654.546ZM654.546 37.2679H653.546V41.3036H654.546H655.546V37.2679H654.546ZM654.546 45.3393H653.546V49.375H654.546H655.546V45.3393H654.546ZM654.546 53.4107H653.546V57.4464H654.546H655.546V53.4107H654.546ZM654.546 61.4821H653.546V65.5178H654.546H655.546V61.4821H654.546ZM654.546 69.5536H653.546V73.5893H654.546H655.546V69.5536H654.546ZM654.546 77.625H653.546V81.6607H654.546H655.546V77.625H654.546ZM654.546 85.6964H653.546V89.7321H654.546H655.546V85.6964H654.546ZM654.546 93.7678H653.546V97.8036H654.546H655.546V93.7678H654.546ZM654.546 101.839H653.546V105.875H654.546H655.546V101.839H654.546ZM654.546 109.911H653.546V113.946H654.546H655.546V109.911H654.546ZM654.546 117.982H653.546V120H654.546H655.546V117.982H654.546ZM654.546 120V121H656.602V120V119H654.546V120ZM660.714 120V121H664.826V120V119H660.714V120ZM668.938 120V121H673.049V120V119H668.938V120ZM677.161 120V121H681.273V120V119H677.161V120ZM685.385 120V121H689.497V120V119H685.385V120ZM693.609 120V121H697.721V120V119H693.609V120ZM701.833 120V121H705.945V120V119H701.833V120ZM710.056 120V121H714.168V120V119H710.056V120ZM718.28 120V121H722.392V120V119H718.28V120ZM726.504 120V121H730.616V120V119H726.504V120ZM734.728 120V121H738.84V120V119H734.728V120ZM742.951 120V121H747.063V120V119H742.951V120ZM751.175 120V121H755.287V120V119H751.175V120ZM759.399 120V121H761.455V120V119H759.399V120ZM761.455 7V6H759.399V7V8H761.455V7ZM755.287 7V6H751.175V7V8H755.287V7ZM747.063 7V6H742.952V7V8H747.063V7ZM738.84 7V6H734.728V7V8H738.84V7ZM730.616 7V6H726.504V7V8H730.616V7ZM722.392 7V6H718.28V7V8H722.392V7ZM714.168 7V6H710.056V7V8H714.168V7ZM705.945 7V6H701.833V7V8H705.945V7ZM697.721 7V6H693.609V7V8H697.721V7ZM689.497 7V6H685.385V7V8H689.497V7ZM681.273 7V6H677.161V7V8H681.273V7ZM673.049 7V6H668.938V7V8H673.049V7ZM664.826 7V6H660.714V7V8H664.826V7ZM656.602 7V6H654.546V7V8H656.602V7Z" fill="url(#paint41_linear_23_2424)" fill-opacity="0.32" mask="url(#path-31-inside-6_23_2424)"/>
<path d="M785.455 25.731L761.455 7V120H785.455V25.731Z" fill="url(#paint42_linear_23_2424)" fill-opacity="0.5"/>
<path d="M774.954 17.5361L777.955 19.877V19.8779L777.647 20.2715L780.647 22.6133L780.954 22.2188L783.954 24.5605H783.955L783.647 24.9541L784.955 25.9746V27.6953H785.455V31.623H784.955V35.5508H785.455V39.4785H784.955V43.4062H785.455V47.334H784.955V51.2617H785.455V55.1904H784.955V59.1182H785.455V63.0459H784.955V66.9736H785.455V70.9014H784.955V74.8291H785.455V78.7568H784.955V82.6855H785.455V86.6133H784.955V90.541H785.455V94.4688H784.955V98.3965H785.455V102.324H784.955V106.252H785.455V110.181H784.955V114.108H785.455V118.036H784.955V119.5H783.455V120H779.455V119.5H775.455V120H771.455V119.5H767.455V120H763.455V119.5H761.955V117.982H761.455V113.946H761.955V109.911H761.455V105.875H761.955V101.839H761.455V97.8037H761.955V93.7676H761.455V89.7324H761.955V85.6963H761.455V81.6611H761.955V77.625H761.455V73.5889H761.955V69.5537H761.455V65.5176H761.955V61.4824H761.455V57.4463H761.955V53.4111H761.455V49.375H761.955V45.3389H761.455V41.3037H761.955V37.2676H761.455V33.2324H761.955V29.1963H761.455V25.1611H761.955V21.125H761.455V17.0889H761.955V13.0537H761.455V9.01758H761.955V8.02441L762.647 8.56445L762.955 8.1709V8.16992L765.954 10.5117L765.647 10.9062L768.647 13.248L768.954 12.8535L771.954 15.1943L771.647 15.5889L774.647 17.9307L774.954 17.5361Z" stroke="url(#paint43_linear_23_2424)" stroke-opacity="0.32" stroke-dasharray="4 4"/>
<mask id="path-35-inside-7_23_2424" fill="white">
<path d="M654.546 120H761.455V446H654.546V120Z"/>
</mask>
<path d="M654.546 120H761.455V446H654.546V120Z" fill="url(#paint44_linear_23_2424)"/>
<path d="M761.455 446V447.456H762.911V446H761.455ZM654.546 446H653.09V447.456H654.546V446ZM761.455 120H759.999V446H761.455H762.911V120H761.455ZM761.455 446V444.544H654.546V446V447.456H761.455V446ZM654.546 446H656.001V120H654.546H653.09V446H654.546Z" fill="url(#paint45_linear_23_2424)" fill-opacity="0.32" mask="url(#path-35-inside-7_23_2424)"/>
<path d="M785.455 174.038L761.455 120V446H785.455V174.038Z" fill="url(#paint46_linear_23_2424)"/>
<path d="M784.955 174.144V445.5H761.955V122.357L784.955 174.144Z" stroke="url(#paint47_linear_23_2424)" stroke-opacity="0.32"/>
<rect x="658.881" y="138.121" width="96.0392" height="36.4247" rx="18.2123" fill="white"/>
<rect x="658.881" y="138.121" width="96.0392" height="36.4247" rx="18.2123" stroke="#DBE2EB" stroke-width="0.670639"/>
<path d="M685.963 158.135L684.399 154.083C684.352 153.962 684.304 153.823 684.253 153.666C684.202 153.503 684.153 153.332 684.107 153.151C684.009 153.527 683.91 153.839 683.808 154.09L682.244 158.135H685.963ZM688.771 161.834H687.728C687.608 161.834 687.511 161.804 687.436 161.743C687.362 161.683 687.307 161.607 687.27 161.514L686.338 159.109H681.868L680.937 161.514C680.909 161.597 680.856 161.672 680.777 161.736C680.698 161.801 680.601 161.834 680.485 161.834H679.442L683.425 151.872H684.788L688.771 161.834ZM690.93 155.814C691.083 155.642 691.246 155.487 691.417 155.348C691.589 155.209 691.769 155.091 691.959 154.993C692.154 154.891 692.358 154.815 692.571 154.764C692.789 154.708 693.023 154.68 693.273 154.68C693.658 154.68 693.996 154.745 694.288 154.875C694.585 155 694.83 155.181 695.025 155.417C695.224 155.649 695.375 155.929 695.477 156.259C695.579 156.588 695.63 156.951 695.63 157.35V161.834H694.385V157.35C694.385 156.817 694.263 156.405 694.017 156.113C693.776 155.816 693.408 155.668 692.912 155.668C692.546 155.668 692.203 155.756 691.883 155.932C691.568 156.108 691.276 156.347 691.007 156.648V161.834H689.763V154.792H690.506C690.683 154.792 690.791 154.877 690.833 155.049L690.93 155.814ZM703.299 161.834H702.11C702.008 161.834 701.927 161.808 701.867 161.757C701.811 161.702 701.765 161.641 701.728 161.577L699.955 158.817C699.937 158.882 699.916 158.946 699.893 159.011C699.874 159.072 699.846 159.127 699.809 159.178L698.169 161.577C698.122 161.641 698.071 161.702 698.016 161.757C697.965 161.808 697.893 161.834 697.8 161.834H696.695L699.163 158.219L696.792 154.792H697.981C698.083 154.792 698.157 154.808 698.204 154.84C698.25 154.873 698.292 154.919 698.329 154.979L700.06 157.621C700.097 157.487 700.155 157.357 700.233 157.232L701.749 155.007C701.791 154.942 701.835 154.891 701.881 154.854C701.932 154.813 701.992 154.792 702.062 154.792H703.202L700.831 158.156L703.299 161.834ZM705.747 154.792V161.834H704.509V154.792H705.747ZM706.011 152.581C706.011 152.702 705.985 152.815 705.934 152.922C705.888 153.024 705.823 153.116 705.74 153.2C705.661 153.279 705.566 153.341 705.455 153.387C705.348 153.434 705.235 153.457 705.114 153.457C704.994 153.457 704.88 153.434 704.773 153.387C704.672 153.341 704.581 153.279 704.502 153.2C704.424 153.116 704.361 153.024 704.315 152.922C704.268 152.815 704.245 152.702 704.245 152.581C704.245 152.461 704.268 152.347 704.315 152.24C704.361 152.129 704.424 152.034 704.502 151.955C704.581 151.872 704.672 151.807 704.773 151.761C704.88 151.714 704.994 151.691 705.114 151.691C705.235 151.691 705.348 151.714 705.455 151.761C705.566 151.807 705.661 151.872 705.74 151.955C705.823 152.034 705.888 152.129 705.934 152.24C705.985 152.347 706.011 152.461 706.011 152.581ZM712.493 157.545C712.493 157.257 712.451 156.995 712.368 156.759C712.289 156.518 712.171 156.312 712.013 156.14C711.86 155.964 711.673 155.83 711.45 155.737C711.228 155.64 710.975 155.591 710.693 155.591C710.099 155.591 709.629 155.765 709.281 156.113C708.938 156.455 708.725 156.933 708.642 157.545H712.493ZM713.494 160.847C713.341 161.032 713.158 161.194 712.945 161.333C712.732 161.468 712.502 161.579 712.257 161.667C712.016 161.755 711.765 161.82 711.506 161.862C711.246 161.908 710.989 161.931 710.734 161.931C710.248 161.931 709.798 161.85 709.386 161.688C708.978 161.521 708.623 161.28 708.322 160.965C708.025 160.645 707.794 160.251 707.627 159.783C707.46 159.315 707.377 158.777 707.377 158.17C707.377 157.679 707.451 157.22 707.599 156.794C707.752 156.367 707.97 155.999 708.253 155.688C708.535 155.373 708.881 155.128 709.288 154.952C709.696 154.771 710.155 154.68 710.665 154.68C711.087 154.68 711.476 154.752 711.833 154.896C712.194 155.035 712.505 155.239 712.764 155.508C713.028 155.772 713.235 156.101 713.383 156.495C713.531 156.884 713.605 157.329 713.605 157.83C713.605 158.024 713.584 158.154 713.543 158.219C713.501 158.284 713.422 158.316 713.306 158.316H708.6C708.614 158.761 708.674 159.148 708.781 159.477C708.892 159.806 709.045 160.082 709.24 160.304C709.434 160.522 709.666 160.687 709.935 160.798C710.204 160.905 710.505 160.958 710.839 160.958C711.149 160.958 711.416 160.923 711.638 160.854C711.865 160.779 712.06 160.701 712.222 160.617C712.384 160.534 712.519 160.457 712.625 160.388C712.736 160.314 712.831 160.277 712.91 160.277C713.012 160.277 713.091 160.316 713.147 160.395L713.494 160.847ZM716.293 155.814C716.446 155.642 716.608 155.487 716.78 155.348C716.951 155.209 717.132 155.091 717.322 154.993C717.517 154.891 717.721 154.815 717.934 154.764C718.152 154.708 718.386 154.68 718.636 154.68C719.02 154.68 719.359 154.745 719.651 154.875C719.947 155 720.193 155.181 720.388 155.417C720.587 155.649 720.738 155.929 720.839 156.259C720.941 156.588 720.992 156.951 720.992 157.35V161.834H719.748V157.35C719.748 156.817 719.625 156.405 719.38 156.113C719.139 155.816 718.77 155.668 718.274 155.668C717.908 155.668 717.565 155.756 717.245 155.932C716.93 156.108 716.638 156.347 716.37 156.648V161.834H715.125V154.792H715.869C716.045 154.792 716.154 154.877 716.196 155.049L716.293 155.814ZM724.945 161.945C724.389 161.945 723.96 161.79 723.659 161.479C723.362 161.169 723.214 160.721 723.214 160.138V155.828H722.366C722.292 155.828 722.229 155.807 722.178 155.765C722.127 155.719 722.102 155.649 722.102 155.556V155.063L723.256 154.917L723.541 152.741C723.555 152.671 723.585 152.616 723.631 152.574C723.682 152.528 723.747 152.505 723.826 152.505H724.451V154.931H726.488V155.828H724.451V160.054C724.451 160.351 724.523 160.571 724.667 160.715C724.81 160.858 724.996 160.93 725.223 160.93C725.353 160.93 725.464 160.914 725.557 160.881C725.654 160.844 725.737 160.805 725.807 160.763C725.876 160.721 725.934 160.684 725.981 160.652C726.032 160.615 726.076 160.596 726.113 160.596C726.178 160.596 726.236 160.636 726.287 160.715L726.648 161.305C726.435 161.505 726.178 161.662 725.876 161.778C725.575 161.889 725.265 161.945 724.945 161.945ZM733.842 154.792L729.914 163.912C729.872 164.005 729.819 164.079 729.754 164.135C729.694 164.19 729.599 164.218 729.469 164.218H728.551L729.837 161.424L726.932 154.792H728.002C728.109 154.792 728.192 154.82 728.252 154.875C728.317 154.926 728.361 154.984 728.385 155.049L730.268 159.484C730.343 159.679 730.405 159.883 730.456 160.096C730.521 159.878 730.591 159.672 730.665 159.477L732.493 155.049C732.521 154.975 732.567 154.915 732.632 154.868C732.701 154.817 732.778 154.792 732.861 154.792H733.842Z" fill="#172A41"/>
<g opacity="0.8">
<mask id="path-41-inside-8_23_2424" fill="white">
<path d="M785.455 110H893.364V234H785.455V110Z"/>
</mask>
<path d="M785.455 110H893.364V234H785.455V110Z" fill="url(#paint48_linear_23_2424)" fill-opacity="0.1"/>
<path d="M785.455 110V109.5H784.955V110H785.455ZM785.455 234H784.955V234.5H785.455V234ZM785.455 110H784.955V111.938H785.455H785.955V110H785.455ZM785.455 115.812H784.955V119.688H785.455H785.955V115.812H785.455ZM785.455 123.562H784.955V127.438H785.455H785.955V123.562H785.455ZM785.455 131.312H784.955V135.188H785.455H785.955V131.312H785.455ZM785.455 139.062H784.955V142.938H785.455H785.955V139.062H785.455ZM785.455 146.812H784.955V150.688H785.455H785.955V146.812H785.455ZM785.455 154.562H784.955V158.438H785.455H785.955V154.562H785.455ZM785.455 162.312H784.955V166.188H785.455H785.955V162.312H785.455ZM785.455 170.062H784.955V173.938H785.455H785.955V170.062H785.455ZM785.455 177.812H784.955V181.688H785.455H785.955V177.812H785.455ZM785.455 185.562H784.955V189.438H785.455H785.955V185.562H785.455ZM785.455 193.312H784.955V197.188H785.455H785.955V193.312H785.455ZM785.455 201.062H784.955V204.938H785.455H785.955V201.062H785.455ZM785.455 208.812H784.955V212.688H785.455H785.955V208.812H785.455ZM785.455 216.562H784.955V220.438H785.455H785.955V216.562H785.455ZM785.455 224.312H784.955V228.188H785.455H785.955V224.312H785.455ZM785.455 232.062H784.955V234H785.455H785.955V232.062H785.455ZM785.455 234V234.5H787.53V234V233.5H785.455V234ZM791.681 234V234.5H795.831V234V233.5H791.681V234ZM799.981 234V234.5H804.132V234V233.5H799.981V234ZM808.282 234V234.5H812.432V234V233.5H808.282V234ZM816.583 234V234.5H820.733V234V233.5H816.583V234ZM824.883 234V234.5H829.034V234V233.5H824.883V234ZM833.184 234V234.5H837.334V234V233.5H833.184V234ZM841.485 234V234.5H845.635V234V233.5H841.485V234ZM849.785 234V234.5H853.936V234V233.5H849.785V234ZM858.086 234V234.5H862.237V234V233.5H858.086V234ZM866.387 234V234.5H870.537V234V233.5H866.387V234ZM874.688 234V234.5H878.838V234V233.5H874.688V234ZM882.988 234V234.5H887.139V234V233.5H882.988V234ZM891.289 234V234.5H893.364V234V233.5H891.289V234ZM893.364 110V109.5H891.289V110V110.5H893.364V110ZM887.139 110V109.5H882.988V110V110.5H887.139V110ZM878.838 110V109.5H874.688V110V110.5H878.838V110ZM870.537 110V109.5H866.387V110V110.5H870.537V110ZM862.237 110V109.5H858.086V110V110.5H862.237V110ZM853.936 110V109.5H849.785V110V110.5H853.936V110ZM845.635 110V109.5H841.485V110V110.5H845.635V110ZM837.334 110V109.5H833.184V110V110.5H837.334V110ZM829.034 110V109.5H824.883V110V110.5H829.034V110ZM820.733 110V109.5H816.583V110V110.5H820.733V110ZM812.432 110V109.5H808.282V110V110.5H812.432V110ZM804.132 110V109.5H799.981V110V110.5H804.132V110ZM795.831 110V109.5H791.681V110V110.5H795.831V110ZM787.53 110V109.5H785.455V110V110.5H787.53V110ZM785.455 110V109H784.455V110H785.455ZM785.455 234H784.455V235H785.455V234ZM785.455 110H784.455V111.938H785.455H786.455V110H785.455ZM785.455 115.812H784.455V119.688H785.455H786.455V115.812H785.455ZM785.455 123.562H784.455V127.438H785.455H786.455V123.562H785.455ZM785.455 131.312H784.455V135.188H785.455H786.455V131.312H785.455ZM785.455 139.062H784.455V142.938H785.455H786.455V139.062H785.455ZM785.455 146.812H784.455V150.688H785.455H786.455V146.812H785.455ZM785.455 154.562H784.455V158.438H785.455H786.455V154.562H785.455ZM785.455 162.312H784.455V166.188H785.455H786.455V162.312H785.455ZM785.455 170.062H784.455V173.938H785.455H786.455V170.062H785.455ZM785.455 177.812H784.455V181.688H785.455H786.455V177.812H785.455ZM785.455 185.562H784.455V189.438H785.455H786.455V185.562H785.455ZM785.455 193.312H784.455V197.188H785.455H786.455V193.312H785.455ZM785.455 201.062H784.455V204.938H785.455H786.455V201.062H785.455ZM785.455 208.812H784.455V212.688H785.455H786.455V208.812H785.455ZM785.455 216.562H784.455V220.438H785.455H786.455V216.562H785.455ZM785.455 224.312H784.455V228.188H785.455H786.455V224.312H785.455ZM785.455 232.062H784.455V234H785.455H786.455V232.062H785.455ZM785.455 234V235H787.53V234V233H785.455V234ZM791.681 234V235H795.831V234V233H791.681V234ZM799.981 234V235H804.132V234V233H799.981V234ZM808.282 234V235H812.432V234V233H808.282V234ZM816.583 234V235H820.733V234V233H816.583V234ZM824.883 234V235H829.034V234V233H824.883V234ZM833.184 234V235H837.334V234V233H833.184V234ZM841.485 234V235H845.635V234V233H841.485V234ZM849.785 234V235H853.936V234V233H849.785V234ZM858.086 234V235H862.237V234V233H858.086V234ZM866.387 234V235H870.537V234V233H866.387V234ZM874.688 234V235H878.838V234V233H874.688V234ZM882.988 234V235H887.139V234V233H882.988V234ZM891.289 234V235H893.364V234V233H891.289V234ZM893.364 110V109H891.289V110V111H893.364V110ZM887.139 110V109H882.988V110V111H887.139V110ZM878.838 110V109H874.688V110V111H878.838V110ZM870.537 110V109H866.387V110V111H870.537V110ZM862.237 110V109H858.086V110V111H862.237V110ZM853.936 110V109H849.785V110V111H853.936V110ZM845.635 110V109H841.485V110V111H845.635V110ZM837.334 110V109H833.184V110V111H837.334V110ZM829.034 110V109H824.883V110V111H829.034V110ZM820.733 110V109H816.583V110V111H820.733V110ZM812.432 110V109H808.282V110V111H812.432V110ZM804.132 110V109H799.981V110V111H804.132V110ZM795.831 110V109H791.681V110V111H795.831V110ZM787.53 110V109H785.455V110V111H787.53V110Z" fill="url(#paint49_linear_23_2424)" fill-opacity="0.32" mask="url(#path-41-inside-8_23_2424)"/>
<path d="M916.364 130.554L893.364 110V234H916.364V130.554Z" fill="url(#paint50_linear_23_2424)" fill-opacity="0.1"/>
<path d="M894.469 111.657L894.801 111.284L897.676 113.854L897.344 114.227L900.219 116.796L900.551 116.423L903.426 118.992L903.094 119.365L905.969 121.935L906.301 121.562L909.176 124.131L908.844 124.504L911.719 127.073L912.051 126.7L914.926 129.27L914.594 129.643L915.864 130.777V132.544H916.364V136.522H915.864V140.501H916.364V144.479H915.864V148.458H916.364V152.438H915.864V156.416H916.364V160.395H915.864V164.373H916.364V168.352H915.864V172.33H916.364V176.31H915.864V180.288H916.364V184.267H915.864V188.245H916.364V192.224H915.864V196.202H916.364V200.182H915.864V204.16H916.364V208.139H915.864V212.117H916.364V216.096H915.864V220.074H916.364V224.054H915.864V228.032H916.364V232.011H915.864V233.5H914.447V234H910.614V233.5H906.781V234H902.947V233.5H899.114V234H895.281V233.5H893.864V232.062H893.364V228.188H893.864V224.312H893.364V220.438H893.864V216.562H893.364V212.688H893.864V208.812H893.364V204.938H893.864V201.062H893.364V197.188H893.864V193.312H893.364V189.438H893.864V185.562H893.364V181.688H893.864V177.812H893.364V173.938H893.864V170.062H893.364V166.188H893.864V162.312H893.364V158.438H893.864V154.562H893.364V150.688H893.864V146.812H893.364V142.938H893.864V139.062H893.364V135.188H893.864V131.312H893.364V127.438H893.864V123.562H893.364V119.688H893.864V115.812H893.364V111.938H893.864V111.117L894.469 111.657Z" stroke="url(#paint51_linear_23_2424)" stroke-opacity="0.32" stroke-dasharray="4 4"/>
<path d="M892.864 234.5V445.5H785.955V234.5H892.864Z" fill="url(#paint52_linear_23_2424)" stroke="url(#paint53_linear_23_2424)"/>
<path d="M915.864 269.289V445.5H893.864V235.676L915.864 269.289Z" fill="url(#paint54_linear_23_2424)" stroke="url(#paint55_linear_23_2424)"/>
</g>
<g opacity="0.8">
<mask id="path-47-inside-9_23_2424" fill="white">
<path d="M916.363 259H1023.27V316H916.363V259Z"/>
</mask>
<path d="M916.363 259H1023.27V316H916.363V259Z" fill="url(#paint56_linear_23_2424)" fill-opacity="0.1"/>
<path d="M916.363 259V258.5H915.863V259H916.363ZM916.363 316H915.863V316.5H916.363V316ZM916.363 259H915.863V261.036H916.363H916.863V259H916.363ZM916.363 265.107H915.863V269.179H916.363H916.863V265.107H916.363ZM916.363 273.25H915.863V277.321H916.363H916.863V273.25H916.363ZM916.363 281.393H915.863V285.464H916.363H916.863V281.393H916.363ZM916.363 289.536H915.863V293.607H916.363H916.863V289.536H916.363ZM916.363 297.679H915.863V301.75H916.363H916.863V297.679H916.363ZM916.363 305.821H915.863V309.893H916.363H916.863V305.821H916.363ZM916.363 313.964H915.863V316H916.363H916.863V313.964H916.363ZM916.363 316V316.5H918.419V316V315.5H916.363V316ZM922.531 316V316.5H926.643V316V315.5H922.531V316ZM930.755 316V316.5H934.867V316V315.5H930.755V316ZM938.979 316V316.5H943.091V316V315.5H938.979V316ZM947.202 316V316.5H951.314V316V315.5H947.202V316ZM955.426 316V316.5H959.538V316V315.5H955.426V316ZM963.65 316V316.5H967.762V316V315.5H963.65V316ZM971.874 316V316.5H975.986V316V315.5H971.874V316ZM980.098 316V316.5H984.209V316V315.5H980.098V316ZM988.321 316V316.5H992.433V316V315.5H988.321V316ZM996.545 316V316.5H1000.66V316V315.5H996.545V316ZM1004.77 316V316.5H1008.88V316V315.5H1004.77V316ZM1012.99 316V316.5H1017.1V316V315.5H1012.99V316ZM1021.22 316V316.5H1023.27V316V315.5H1021.22V316ZM1023.27 259V258.5H1021.22V259V259.5H1023.27V259ZM1017.1 259V258.5H1012.99V259V259.5H1017.1V259ZM1008.88 259V258.5H1004.77V259V259.5H1008.88V259ZM1000.66 259V258.5H996.545V259V259.5H1000.66V259ZM992.433 259V258.5H988.321V259V259.5H992.433V259ZM984.209 259V258.5H980.098V259V259.5H984.209V259ZM975.986 259V258.5H971.874V259V259.5H975.986V259ZM967.762 259V258.5H963.65V259V259.5H967.762V259ZM959.538 259V258.5H955.426V259V259.5H959.538V259ZM951.314 259V258.5H947.202V259V259.5H951.314V259ZM943.091 259V258.5H938.979V259V259.5H943.091V259ZM934.867 259V258.5H930.755V259V259.5H934.867V259ZM926.643 259V258.5H922.531V259V259.5H926.643V259ZM918.419 259V258.5H916.363V259V259.5H918.419V259ZM916.363 259V258H915.363V259H916.363ZM916.363 316H915.363V317H916.363V316ZM916.363 259H915.363V261.036H916.363H917.363V259H916.363ZM916.363 265.107H915.363V269.179H916.363H917.363V265.107H916.363ZM916.363 273.25H915.363V277.321H916.363H917.363V273.25H916.363ZM916.363 281.393H915.363V285.464H916.363H917.363V281.393H916.363ZM916.363 289.536H915.363V293.607H916.363H917.363V289.536H916.363ZM916.363 297.679H915.363V301.75H916.363H917.363V297.679H916.363ZM916.363 305.821H915.363V309.893H916.363H917.363V305.821H916.363ZM916.363 313.964H915.363V316H916.363H917.363V313.964H916.363ZM916.363 316V317H918.419V316V315H916.363V316ZM922.531 316V317H926.643V316V315H922.531V316ZM930.755 316V317H934.867V316V315H930.755V316ZM938.979 316V317H943.091V316V315H938.979V316ZM947.202 316V317H951.314V316V315H947.202V316ZM955.426 316V317H959.538V316V315H955.426V316ZM963.65 316V317H967.762V316V315H963.65V316ZM971.874 316V317H975.986V316V315H971.874V316ZM980.098 316V317H984.209V316V315H980.098V316ZM988.321 316V317H992.433V316V315H988.321V316ZM996.545 316V317H1000.66V316V315H996.545V316ZM1004.77 316V317H1008.88V316V315H1004.77V316ZM1012.99 316V317H1017.1V316V315H1012.99V316ZM1021.22 316V317H1023.27V316V315H1021.22V316ZM1023.27 259V258H1021.22V259V260H1023.27V259ZM1017.1 259V258H1012.99V259V260H1017.1V259ZM1008.88 259V258H1004.77V259V260H1008.88V259ZM1000.66 259V258H996.545V259V260H1000.66V259ZM992.433 259V258H988.321V259V260H992.433V259ZM984.209 259V258H980.098V259V260H984.209V259ZM975.986 259V258H971.874V259V260H975.986V259ZM967.762 259V258H963.65V259V260H967.762V259ZM959.538 259V258H955.426V259V260H959.538V259ZM951.314 259V258H947.202V259V260H951.314V259ZM943.091 259V258H938.979V259V260H943.091V259ZM934.867 259V258H930.755V259V260H934.867V259ZM926.643 259V258H922.531V259V260H926.643V259ZM918.419 259V258H916.363V259V260H918.419V259Z" fill="url(#paint57_linear_23_2424)" fill-opacity="0.32" mask="url(#path-47-inside-9_23_2424)"/>
<path d="M1047.27 268.448L1023.27 259V316H1047.27V268.448Z" fill="url(#paint58_linear_23_2424)" fill-opacity="0.1"/>
<path d="M1025.09 260.253L1025.27 259.787L1029.27 261.361V261.362L1029.09 261.827L1033.09 263.402L1033.27 262.937L1037.27 264.511V264.512L1037.09 264.977L1041.09 266.552L1041.27 266.086L1045.27 267.66V267.661L1045.09 268.126L1046.77 268.789V270.43H1047.27V274.393H1046.77V278.354H1047.27V282.317H1046.77V286.28H1047.27V290.243H1046.77V294.205H1047.27V298.168H1046.77V302.131H1047.27V306.094H1046.77V310.056H1047.27V314.019H1046.77V315.5H1045.27V316H1041.27V315.5H1037.27V316H1033.27V315.5H1029.27V316H1025.27V315.5H1023.77V313.964H1023.27V309.893H1023.77V305.821H1023.27V301.75H1023.77V297.679H1023.27V293.607H1023.77V289.536H1023.27V285.464H1023.77V281.393H1023.27V277.321H1023.77V273.25H1023.27V269.179H1023.77V265.107H1023.27V261.036H1023.77V259.733L1025.09 260.253Z" stroke="url(#paint59_linear_23_2424)" stroke-opacity="0.32" stroke-dasharray="4 4"/>
<path d="M1022.77 316.5V445.5H916.863V316.5H1022.77Z" fill="url(#paint60_linear_23_2424)" stroke="url(#paint61_linear_23_2424)"/>
<path d="M1046.77 337.771V445.5H1023.77V317.12L1046.77 337.771Z" fill="url(#paint62_linear_23_2424)" stroke="url(#paint63_linear_23_2424)"/>
</g>
<g opacity="0.8">
<mask id="path-53-inside-10_23_2424" fill="white">
<path d="M1047.27 259H1154.18V316H1047.27V259Z"/>
</mask>
<path d="M1047.27 259H1154.18V316H1047.27V259Z" fill="url(#paint64_linear_23_2424)" fill-opacity="0.1"/>
<path d="M1047.27 259V258.5H1046.77V259H1047.27ZM1047.27 316H1046.77V316.5H1047.27V316ZM1047.27 259H1046.77V261.036H1047.27H1047.77V259H1047.27ZM1047.27 265.107H1046.77V269.179H1047.27H1047.77V265.107H1047.27ZM1047.27 273.25H1046.77V277.321H1047.27H1047.77V273.25H1047.27ZM1047.27 281.393H1046.77V285.464H1047.27H1047.77V281.393H1047.27ZM1047.27 289.536H1046.77V293.607H1047.27H1047.77V289.536H1047.27ZM1047.27 297.679H1046.77V301.75H1047.27H1047.77V297.679H1047.27ZM1047.27 305.821H1046.77V309.893H1047.27H1047.77V305.821H1047.27ZM1047.27 313.964H1046.77V316H1047.27H1047.77V313.964H1047.27ZM1047.27 316V316.5H1049.33V316V315.5H1047.27V316ZM1053.44 316V316.5H1057.55V316V315.5H1053.44V316ZM1061.66 316V316.5H1065.78V316V315.5H1061.66V316ZM1069.89 316V316.5H1074V316V315.5H1069.89V316ZM1078.11 316V316.5H1082.22V316V315.5H1078.11V316ZM1086.34 316V316.5H1090.45V316V315.5H1086.34V316ZM1094.56 316V316.5H1098.67V316V315.5H1094.56V316ZM1102.78 316V316.5H1106.89V316V315.5H1102.78V316ZM1111.01 316V316.5H1115.12V316V315.5H1111.01V316ZM1119.23 316V316.5H1123.34V316V315.5H1119.23V316ZM1127.45 316V316.5H1131.57V316V315.5H1127.45V316ZM1135.68 316V316.5H1139.79V316V315.5H1135.68V316ZM1143.9 316V316.5H1148.01V316V315.5H1143.9V316ZM1152.13 316V316.5H1154.18V316V315.5H1152.13V316ZM1154.18 259V258.5H1152.13V259V259.5H1154.18V259ZM1148.01 259V258.5H1143.9V259V259.5H1148.01V259ZM1139.79 259V258.5H1135.68V259V259.5H1139.79V259ZM1131.57 259V258.5H1127.45V259V259.5H1131.57V259ZM1123.34 259V258.5H1119.23V259V259.5H1123.34V259ZM1115.12 259V258.5H1111.01V259V259.5H1115.12V259ZM1106.89 259V258.5H1102.78V259V259.5H1106.89V259ZM1098.67 259V258.5H1094.56V259V259.5H1098.67V259ZM1090.45 259V258.5H1086.34V259V259.5H1090.45V259ZM1082.22 259V258.5H1078.11V259V259.5H1082.22V259ZM1074 259V258.5H1069.89V259V259.5H1074V259ZM1065.78 259V258.5H1061.66V259V259.5H1065.78V259ZM1057.55 259V258.5H1053.44V259V259.5H1057.55V259ZM1049.33 259V258.5H1047.27V259V259.5H1049.33V259ZM1047.27 259V258H1046.27V259H1047.27ZM1047.27 316H1046.27V317H1047.27V316ZM1047.27 259H1046.27V261.036H1047.27H1048.27V259H1047.27ZM1047.27 265.107H1046.27V269.179H1047.27H1048.27V265.107H1047.27ZM1047.27 273.25H1046.27V277.321H1047.27H1048.27V273.25H1047.27ZM1047.27 281.393H1046.27V285.464H1047.27H1048.27V281.393H1047.27ZM1047.27 289.536H1046.27V293.607H1047.27H1048.27V289.536H1047.27ZM1047.27 297.679H1046.27V301.75H1047.27H1048.27V297.679H1047.27ZM1047.27 305.821H1046.27V309.893H1047.27H1048.27V305.821H1047.27ZM1047.27 313.964H1046.27V316H1047.27H1048.27V313.964H1047.27ZM1047.27 316V317H1049.33V316V315H1047.27V316ZM1053.44 316V317H1057.55V316V315H1053.44V316ZM1061.66 316V317H1065.78V316V315H1061.66V316ZM1069.89 316V317H1074V316V315H1069.89V316ZM1078.11 316V317H1082.22V316V315H1078.11V316ZM1086.34 316V317H1090.45V316V315H1086.34V316ZM1094.56 316V317H1098.67V316V315H1094.56V316ZM1102.78 316V317H1106.89V316V315H1102.78V316ZM1111.01 316V317H1115.12V316V315H1111.01V316ZM1119.23 316V317H1123.34V316V315H1119.23V316ZM1127.45 316V317H1131.57V316V315H1127.45V316ZM1135.68 316V317H1139.79V316V315H1135.68V316ZM1143.9 316V317H1148.01V316V315H1143.9V316ZM1152.13 316V317H1154.18V316V315H1152.13V316ZM1154.18 259V258H1152.13V259V260H1154.18V259ZM1148.01 259V258H1143.9V259V260H1148.01V259ZM1139.79 259V258H1135.68V259V260H1139.79V259ZM1131.57 259V258H1127.45V259V260H1131.57V259ZM1123.34 259V258H1119.23V259V260H1123.34V259ZM1115.12 259V258H1111.01V259V260H1115.12V259ZM1106.89 259V258H1102.78V259V260H1106.89V259ZM1098.67 259V258H1094.56V259V260H1098.67V259ZM1090.45 259V258H1086.34V259V260H1090.45V259ZM1082.22 259V258H1078.11V259V260H1082.22V259ZM1074 259V258H1069.89V259V260H1074V259ZM1065.78 259V258H1061.66V259V260H1065.78V259ZM1057.55 259V258H1053.44V259V260H1057.55V259ZM1049.33 259V258H1047.27V259V260H1049.33V259Z" fill="url(#paint65_linear_23_2424)" fill-opacity="0.32" mask="url(#path-53-inside-10_23_2424)"/>
<path d="M1178.18 268.448L1154.18 259V316H1178.18V268.448Z" fill="url(#paint66_linear_23_2424)" fill-opacity="0.1"/>
<path d="M1156 260.253L1156.18 259.787L1160.18 261.361V261.362L1160 261.827L1164 263.402L1164.18 262.937L1168.18 264.511V264.512L1168 264.977L1172 266.552L1172.18 266.086L1176.18 267.66V267.661L1176 268.126L1177.68 268.789V270.43H1178.18V274.393H1177.68V278.354H1178.18V282.317H1177.68V286.28H1178.18V290.243H1177.68V294.205H1178.18V298.168H1177.68V302.131H1178.18V306.094H1177.68V310.056H1178.18V314.019H1177.68V315.5H1176.18V316H1172.18V315.5H1168.18V316H1164.18V315.5H1160.18V316H1156.18V315.5H1154.68V313.964H1154.18V309.893H1154.68V305.821H1154.18V301.75H1154.68V297.679H1154.18V293.607H1154.68V289.536H1154.18V285.464H1154.68V281.393H1154.18V277.321H1154.68V273.25H1154.18V269.179H1154.68V265.107H1154.18V261.036H1154.68V259.733L1156 260.253Z" stroke="url(#paint67_linear_23_2424)" stroke-opacity="0.32" stroke-dasharray="4 4"/>
<path d="M1153.68 316.5V445.5H1047.77V316.5H1153.68Z" fill="url(#paint68_linear_23_2424)" stroke="url(#paint69_linear_23_2424)"/>
<path d="M1177.68 337.771V445.5H1154.68V317.12L1177.68 337.771Z" fill="url(#paint70_linear_23_2424)" stroke="url(#paint71_linear_23_2424)"/>
</g>
<g opacity="0.8">
<mask id="path-59-inside-11_23_2424" fill="white">
<path d="M1178.18 235H1286.09V291H1178.18V235Z"/>
</mask>
<path d="M1178.18 235H1286.09V291H1178.18V235Z" fill="url(#paint72_linear_23_2424)" fill-opacity="0.1"/>
<path d="M1178.18 235V234.5H1177.68V235H1178.18ZM1178.18 291H1177.68V291.5H1178.18V291ZM1178.18 235H1177.68V237H1178.18H1178.68V235H1178.18ZM1178.18 241H1177.68V245H1178.18H1178.68V241H1178.18ZM1178.18 249H1177.68V253H1178.18H1178.68V249H1178.18ZM1178.18 257H1177.68V261H1178.18H1178.68V257H1178.18ZM1178.18 265H1177.68V269H1178.18H1178.68V265H1178.18ZM1178.18 273H1177.68V277H1178.18H1178.68V273H1178.18ZM1178.18 281H1177.68V285H1178.18H1178.68V281H1178.18ZM1178.18 289H1177.68V291H1178.18H1178.68V289H1178.18ZM1178.18 291V291.5H1180.26V291V290.5H1178.18V291ZM1184.41 291V291.5H1188.56V291V290.5H1184.41V291ZM1192.71 291V291.5H1196.86V291V290.5H1192.71V291ZM1201.01 291V291.5H1205.16V291V290.5H1201.01V291ZM1209.31 291V291.5H1213.46V291V290.5H1209.31V291ZM1217.61 291V291.5H1221.76V291V290.5H1217.61V291ZM1225.91 291V291.5H1230.06V291V290.5H1225.91V291ZM1234.21 291V291.5H1238.36V291V290.5H1234.21V291ZM1242.51 291V291.5H1246.66V291V290.5H1242.51V291ZM1250.81 291V291.5H1254.96V291V290.5H1250.81V291ZM1259.11 291V291.5H1263.26V291V290.5H1259.11V291ZM1267.41 291V291.5H1271.56V291V290.5H1267.41V291ZM1275.71 291V291.5H1279.87V291V290.5H1275.71V291ZM1284.02 291V291.5H1286.09V291V290.5H1284.02V291ZM1286.09 235V234.5H1284.02V235V235.5H1286.09V235ZM1279.87 235V234.5H1275.71V235V235.5H1279.87V235ZM1271.56 235V234.5H1267.41V235V235.5H1271.56V235ZM1263.26 235V234.5H1259.11V235V235.5H1263.26V235ZM1254.96 235V234.5H1250.81V235V235.5H1254.96V235ZM1246.66 235V234.5H1242.51V235V235.5H1246.66V235ZM1238.36 235V234.5H1234.21V235V235.5H1238.36V235ZM1230.06 235V234.5H1225.91V235V235.5H1230.06V235ZM1221.76 235V234.5H1217.61V235V235.5H1221.76V235ZM1213.46 235V234.5H1209.31V235V235.5H1213.46V235ZM1205.16 235V234.5H1201.01V235V235.5H1205.16V235ZM1196.86 235V234.5H1192.71V235V235.5H1196.86V235ZM1188.56 235V234.5H1184.41V235V235.5H1188.56V235ZM1180.26 235V234.5H1178.18V235V235.5H1180.26V235ZM1178.18 235V234H1177.18V235H1178.18ZM1178.18 291H1177.18V292H1178.18V291ZM1178.18 235H1177.18V237H1178.18H1179.18V235H1178.18ZM1178.18 241H1177.18V245H1178.18H1179.18V241H1178.18ZM1178.18 249H1177.18V253H1178.18H1179.18V249H1178.18ZM1178.18 257H1177.18V261H1178.18H1179.18V257H1178.18ZM1178.18 265H1177.18V269H1178.18H1179.18V265H1178.18ZM1178.18 273H1177.18V277H1178.18H1179.18V273H1178.18ZM1178.18 281H1177.18V285H1178.18H1179.18V281H1178.18ZM1178.18 289H1177.18V291H1178.18H1179.18V289H1178.18ZM1178.18 291V292H1180.26V291V290H1178.18V291ZM1184.41 291V292H1188.56V291V290H1184.41V291ZM1192.71 291V292H1196.86V291V290H1192.71V291ZM1201.01 291V292H1205.16V291V290H1201.01V291ZM1209.31 291V292H1213.46V291V290H1209.31V291ZM1217.61 291V292H1221.76V291V290H1217.61V291ZM1225.91 291V292H1230.06V291V290H1225.91V291ZM1234.21 291V292H1238.36V291V290H1234.21V291ZM1242.51 291V292H1246.66V291V290H1242.51V291ZM1250.81 291V292H1254.96V291V290H1250.81V291ZM1259.11 291V292H1263.26V291V290H1259.11V291ZM1267.41 291V292H1271.56V291V290H1267.41V291ZM1275.71 291V292H1279.87V291V290H1275.71V291ZM1284.02 291V292H1286.09V291V290H1284.02V291ZM1286.09 235V234H1284.02V235V236H1286.09V235ZM1279.87 235V234H1275.71V235V236H1279.87V235ZM1271.56 235V234H1267.41V235V236H1271.56V235ZM1263.26 235V234H1259.11V235V236H1263.26V235ZM1254.96 235V234H1250.81V235V236H1254.96V235ZM1246.66 235V234H1242.51V235V236H1246.66V235ZM1238.36 235V234H1234.21V235V236H1238.36V235ZM1230.06 235V234H1225.91V235V236H1230.06V235ZM1221.76 235V234H1217.61V235V236H1221.76V235ZM1213.46 235V234H1209.31V235V236H1213.46V235ZM1205.16 235V234H1201.01V235V236H1205.16V235ZM1196.86 235V234H1192.71V235V236H1196.86V235ZM1188.56 235V234H1184.41V235V236H1188.56V235ZM1180.26 235V234H1178.18V235V236H1180.26V235Z" fill="url(#paint73_linear_23_2424)" fill-opacity="0.32" mask="url(#path-59-inside-11_23_2424)"/>
<path d="M1309.09 244.283L1286.09 235V291H1309.09V244.283Z" fill="url(#paint74_linear_23_2424)" fill-opacity="0.1"/>
<path d="M1287.82 236.237L1288.01 235.773L1291.84 237.32L1291.65 237.784L1295.49 239.331L1295.67 238.868V238.867L1299.51 240.414V240.415L1299.32 240.879L1303.15 242.426L1303.34 241.962V241.961L1307.17 243.508V243.509L1306.99 243.973L1308.59 244.619V246.229H1309.09V250.122H1308.59V254.016H1309.09V257.908H1308.59V261.802H1309.09V265.694H1308.59V269.588H1309.09V273.481H1308.59V277.374H1309.09V281.268H1308.59V285.16H1309.09V289.054H1308.59V290.5H1307.17V291H1303.34V290.5H1299.51V291H1295.67V290.5H1291.84V291H1288.01V290.5H1286.59V289H1286.09V285H1286.59V281H1286.09V277H1286.59V273H1286.09V269H1286.59V265H1286.09V261H1286.59V257H1286.09V253H1286.59V249H1286.09V245H1286.59V241H1286.09V237H1286.59V235.741L1287.82 236.237Z" stroke="url(#paint75_linear_23_2424)" stroke-opacity="0.32" stroke-dasharray="4 4"/>
<path d="M1285.59 291.5V445.5H1178.68V291.5H1285.59Z" fill="url(#paint76_linear_23_2424)" stroke="url(#paint77_linear_23_2424)"/>
<path d="M1308.59 316.883V445.5H1286.59V292.307L1308.59 316.883Z" fill="url(#paint78_linear_23_2424)" stroke="url(#paint79_linear_23_2424)"/>
</g>
<g opacity="0.8">
<mask id="path-65-inside-12_23_2424" fill="white">
<path d="M1309.09 235H1417V291H1309.09V235Z"/>
</mask>
<path d="M1309.09 235H1417V291H1309.09V235Z" fill="url(#paint80_linear_23_2424)" fill-opacity="0.1"/>
<path d="M1309.09 235V234.5H1308.59V235H1309.09ZM1309.09 291H1308.59V291.5H1309.09V291ZM1309.09 235H1308.59V237H1309.09H1309.59V235H1309.09ZM1309.09 241H1308.59V245H1309.09H1309.59V241H1309.09ZM1309.09 249H1308.59V253H1309.09H1309.59V249H1309.09ZM1309.09 257H1308.59V261H1309.09H1309.59V257H1309.09ZM1309.09 265H1308.59V269H1309.09H1309.59V265H1309.09ZM1309.09 273H1308.59V277H1309.09H1309.59V273H1309.09ZM1309.09 281H1308.59V285H1309.09H1309.59V281H1309.09ZM1309.09 289H1308.59V291H1309.09H1309.59V289H1309.09ZM1309.09 291V291.5H1311.17V291V290.5H1309.09V291ZM1315.32 291V291.5H1319.47V291V290.5H1315.32V291ZM1323.62 291V291.5H1327.77V291V290.5H1323.62V291ZM1331.92 291V291.5H1336.07V291V290.5H1331.92V291ZM1340.22 291V291.5H1344.37V291V290.5H1340.22V291ZM1348.52 291V291.5H1352.67V291V290.5H1348.52V291ZM1356.82 291V291.5H1360.97V291V290.5H1356.82V291ZM1365.12 291V291.5H1369.27V291V290.5H1365.12V291ZM1373.42 291V291.5H1377.57V291V290.5H1373.42V291ZM1381.72 291V291.5H1385.87V291V290.5H1381.72V291ZM1390.02 291V291.5H1394.17V291V290.5H1390.02V291ZM1398.32 291V291.5H1402.47V291V290.5H1398.32V291ZM1406.62 291V291.5H1410.77V291V290.5H1406.62V291ZM1414.92 291V291.5H1417V291V290.5H1414.92V291ZM1417 235V234.5H1414.92V235V235.5H1417V235ZM1410.77 235V234.5H1406.62V235V235.5H1410.77V235ZM1402.47 235V234.5H1398.32V235V235.5H1402.47V235ZM1394.17 235V234.5H1390.02V235V235.5H1394.17V235ZM1385.87 235V234.5H1381.72V235V235.5H1385.87V235ZM1377.57 235V234.5H1373.42V235V235.5H1377.57V235ZM1369.27 235V234.5H1365.12V235V235.5H1369.27V235ZM1360.97 235V234.5H1356.82V235V235.5H1360.97V235ZM1352.67 235V234.5H1348.52V235V235.5H1352.67V235ZM1344.37 235V234.5H1340.22V235V235.5H1344.37V235ZM1336.07 235V234.5H1331.92V235V235.5H1336.07V235ZM1327.77 235V234.5H1323.62V235V235.5H1327.77V235ZM1319.47 235V234.5H1315.32V235V235.5H1319.47V235ZM1311.17 235V234.5H1309.09V235V235.5H1311.17V235ZM1309.09 235V234H1308.09V235H1309.09ZM1309.09 291H1308.09V292H1309.09V291ZM1309.09 235H1308.09V237H1309.09H1310.09V235H1309.09ZM1309.09 241H1308.09V245H1309.09H1310.09V241H1309.09ZM1309.09 249H1308.09V253H1309.09H1310.09V249H1309.09ZM1309.09 257H1308.09V261H1309.09H1310.09V257H1309.09ZM1309.09 265H1308.09V269H1309.09H1310.09V265H1309.09ZM1309.09 273H1308.09V277H1309.09H1310.09V273H1309.09ZM1309.09 281H1308.09V285H1309.09H1310.09V281H1309.09ZM1309.09 289H1308.09V291H1309.09H1310.09V289H1309.09ZM1309.09 291V292H1311.17V291V290H1309.09V291ZM1315.32 291V292H1319.47V291V290H1315.32V291ZM1323.62 291V292H1327.77V291V290H1323.62V291ZM1331.92 291V292H1336.07V291V290H1331.92V291ZM1340.22 291V292H1344.37V291V290H1340.22V291ZM1348.52 291V292H1352.67V291V290H1348.52V291ZM1356.82 291V292H1360.97V291V290H1356.82V291ZM1365.12 291V292H1369.27V291V290H1365.12V291ZM1373.42 291V292H1377.57V291V290H1373.42V291ZM1381.72 291V292H1385.87V291V290H1381.72V291ZM1390.02 291V292H1394.17V291V290H1390.02V291ZM1398.32 291V292H1402.47V291V290H1398.32V291ZM1406.62 291V292H1410.77V291V290H1406.62V291ZM1414.92 291V292H1417V291V290H1414.92V291ZM1417 235V234H1414.92V235V236H1417V235ZM1410.77 235V234H1406.62V235V236H1410.77V235ZM1402.47 235V234H1398.32V235V236H1402.47V235ZM1394.17 235V234H1390.02V235V236H1394.17V235ZM1385.87 235V234H1381.72V235V236H1385.87V235ZM1377.57 235V234H1373.42V235V236H1377.57V235ZM1369.27 235V234H1365.12V235V236H1369.27V235ZM1360.97 235V234H1356.82V235V236H1360.97V235ZM1352.67 235V234H1348.52V235V236H1352.67V235ZM1344.37 235V234H1340.22V235V236H1344.37V235ZM1336.07 235V234H1331.92V235V236H1336.07V235ZM1327.77 235V234H1323.62V235V236H1327.77V235ZM1319.47 235V234H1315.32V235V236H1319.47V235ZM1311.17 235V234H1309.09V235V236H1311.17V235Z" fill="url(#paint81_linear_23_2424)" fill-opacity="0.32" mask="url(#path-65-inside-12_23_2424)"/>
<path d="M1440 244.283L1417 235V291H1440V244.283Z" fill="url(#paint82_linear_23_2424)" fill-opacity="0.1"/>
<path d="M1418.73 236.237L1418.92 235.773L1422.75 237.32L1422.56 237.784L1426.4 239.331L1426.58 238.868V238.867L1430.42 240.414V240.415L1430.23 240.879L1434.06 242.426L1434.25 241.962V241.961L1438.08 243.508V243.509L1437.9 243.973L1439.5 244.619V246.229H1440V250.122H1439.5V254.016H1440V257.908H1439.5V261.802H1440V265.694H1439.5V269.588H1440V273.481H1439.5V277.374H1440V281.268H1439.5V285.16H1440V289.054H1439.5V290.5H1438.08V291H1434.25V290.5H1430.42V291H1426.58V290.5H1422.75V291H1418.92V290.5H1417.5V289H1417V285H1417.5V281H1417V277H1417.5V273H1417V269H1417.5V265H1417V261H1417.5V257H1417V253H1417.5V249H1417V245H1417.5V241H1417V237H1417.5V235.741L1418.73 236.237Z" stroke="url(#paint83_linear_23_2424)" stroke-opacity="0.32" stroke-dasharray="4 4"/>
<path d="M1416.5 291.5V445.5H1309.59V291.5H1416.5Z" fill="url(#paint84_linear_23_2424)" stroke="url(#paint85_linear_23_2424)"/>
<path d="M1439.5 316.883V445.5H1417.5V292.307L1439.5 316.883Z" fill="url(#paint86_linear_23_2424)" stroke="url(#paint87_linear_23_2424)"/>
</g>
<defs>
<linearGradient id="paint0_linear_23_2424" x1="53.9545" y1="232" x2="53.9545" y2="356" gradientUnits="userSpaceOnUse">
<stop stop-color="#EBEBEB"/>
<stop offset="1" stop-color="white"/>
</linearGradient>
<linearGradient id="paint1_linear_23_2424" x1="53.9545" y1="232" x2="53.9545" y2="356" gradientUnits="userSpaceOnUse">
<stop stop-color="#5C5C5C"/>
<stop offset="1" stop-color="#5C5C5C" stop-opacity="0"/>
</linearGradient>
<linearGradient id="paint2_linear_23_2424" x1="119.409" y1="232" x2="119.409" y2="356" gradientUnits="userSpaceOnUse">
<stop stop-color="#EBEBEB"/>
<stop offset="1" stop-color="white"/>
</linearGradient>
<linearGradient id="paint3_linear_23_2424" x1="119.409" y1="232" x2="119.409" y2="356" gradientUnits="userSpaceOnUse">
<stop stop-color="#5C5C5C"/>
<stop offset="1" stop-color="#5C5C5C" stop-opacity="0"/>
</linearGradient>
<linearGradient id="paint4_linear_23_2424" x1="53.9545" y1="356" x2="53.9545" y2="446" gradientUnits="userSpaceOnUse">
<stop stop-color="#EBEBEB"/>
<stop offset="1" stop-color="white"/>
</linearGradient>
<linearGradient id="paint5_linear_23_2424" x1="53.9545" y1="356" x2="53.9545" y2="446" gradientUnits="userSpaceOnUse">
<stop stop-color="#EBEBEB"/>
<stop offset="1" stop-color="#EBEBEB" stop-opacity="0.24"/>
</linearGradient>
<linearGradient id="paint6_linear_23_2424" x1="119.409" y1="356" x2="119.409" y2="446" gradientUnits="userSpaceOnUse">
<stop stop-color="white"/>
<stop offset="1" stop-color="#EBEBEB"/>
</linearGradient>
<linearGradient id="paint7_linear_23_2424" x1="119.409" y1="356" x2="119.409" y2="446" gradientUnits="userSpaceOnUse">
<stop stop-color="#EBEBEB"/>
<stop offset="1" stop-color="#EBEBEB" stop-opacity="0.24"/>
</linearGradient>
<linearGradient id="paint8_linear_23_2424" x1="184.864" y1="300" x2="184.864" y2="376" gradientUnits="userSpaceOnUse">
<stop stop-color="#EBEBEB"/>
<stop offset="1" stop-color="white"/>
</linearGradient>
<linearGradient id="paint9_linear_23_2424" x1="184.864" y1="300" x2="184.864" y2="376" gradientUnits="userSpaceOnUse">
<stop stop-color="#5C5C5C"/>
<stop offset="1" stop-color="#5C5C5C" stop-opacity="0"/>
</linearGradient>
<linearGradient id="paint10_linear_23_2424" x1="250.318" y1="300" x2="250.318" y2="376" gradientUnits="userSpaceOnUse">
<stop stop-color="#EBEBEB"/>
<stop offset="1" stop-color="white"/>
</linearGradient>
<linearGradient id="paint11_linear_23_2424" x1="250.318" y1="300" x2="250.318" y2="376" gradientUnits="userSpaceOnUse">
<stop stop-color="#5C5C5C"/>
<stop offset="1" stop-color="#5C5C5C" stop-opacity="0"/>
</linearGradient>
<linearGradient id="paint12_linear_23_2424" x1="184.864" y1="376" x2="184.864" y2="446" gradientUnits="userSpaceOnUse">
<stop stop-color="#EBEBEB"/>
<stop offset="1" stop-color="white"/>
</linearGradient>
<linearGradient id="paint13_linear_23_2424" x1="184.864" y1="376" x2="184.864" y2="446" gradientUnits="userSpaceOnUse">
<stop stop-color="#EBEBEB"/>
<stop offset="1" stop-color="#EBEBEB" stop-opacity="0.24"/>
</linearGradient>
<linearGradient id="paint14_linear_23_2424" x1="250.318" y1="376" x2="250.318" y2="446" gradientUnits="userSpaceOnUse">
<stop stop-color="white"/>
<stop offset="1" stop-color="#EBEBEB"/>
</linearGradient>
<linearGradient id="paint15_linear_23_2424" x1="250.318" y1="376" x2="250.318" y2="446" gradientUnits="userSpaceOnUse">
<stop stop-color="#EBEBEB"/>
<stop offset="1" stop-color="#EBEBEB" stop-opacity="0.24"/>
</linearGradient>
<linearGradient id="paint16_linear_23_2424" x1="315.773" y1="209" x2="315.773" y2="333" gradientUnits="userSpaceOnUse">
<stop stop-color="#EBEBEB"/>
<stop offset="1" stop-color="white"/>
</linearGradient>
<linearGradient id="paint17_linear_23_2424" x1="315.773" y1="209" x2="315.773" y2="333" gradientUnits="userSpaceOnUse">
<stop stop-color="#5C5C5C"/>
<stop offset="1" stop-color="#5C5C5C" stop-opacity="0"/>
</linearGradient>
<linearGradient id="paint18_linear_23_2424" x1="381.228" y1="209" x2="381.228" y2="333" gradientUnits="userSpaceOnUse">
<stop stop-color="#EBEBEB"/>
<stop offset="1" stop-color="white"/>
</linearGradient>
<linearGradient id="paint19_linear_23_2424" x1="381.228" y1="209" x2="381.228" y2="333" gradientUnits="userSpaceOnUse">
<stop stop-color="#5C5C5C"/>
<stop offset="1" stop-color="#5C5C5C" stop-opacity="0"/>
</linearGradient>
<linearGradient id="paint20_linear_23_2424" x1="315.773" y1="333" x2="315.773" y2="446" gradientUnits="userSpaceOnUse">
<stop stop-color="#EBEBEB"/>
<stop offset="1" stop-color="white"/>
</linearGradient>
<linearGradient id="paint21_linear_23_2424" x1="315.773" y1="333" x2="315.773" y2="446" gradientUnits="userSpaceOnUse">
<stop stop-color="#EBEBEB"/>
<stop offset="1" stop-color="#EBEBEB" stop-opacity="0.24"/>
</linearGradient>
<linearGradient id="paint22_linear_23_2424" x1="381.228" y1="333" x2="381.228" y2="446" gradientUnits="userSpaceOnUse">
<stop stop-color="white"/>
<stop offset="1" stop-color="#EBEBEB"/>
</linearGradient>
<linearGradient id="paint23_linear_23_2424" x1="381.228" y1="333" x2="381.228" y2="446" gradientUnits="userSpaceOnUse">
<stop stop-color="#EBEBEB"/>
<stop offset="1" stop-color="#EBEBEB" stop-opacity="0.24"/>
</linearGradient>
<linearGradient id="paint24_linear_23_2424" x1="446.182" y1="259" x2="446.182" y2="316" gradientUnits="userSpaceOnUse">
<stop stop-color="#EBEBEB"/>
<stop offset="1" stop-color="white"/>
</linearGradient>
<linearGradient id="paint25_linear_23_2424" x1="446.182" y1="259" x2="446.182" y2="316" gradientUnits="userSpaceOnUse">
<stop stop-color="#5C5C5C"/>
<stop offset="1" stop-color="#5C5C5C" stop-opacity="0"/>
</linearGradient>
<linearGradient id="paint26_linear_23_2424" x1="511.637" y1="259" x2="511.637" y2="316" gradientUnits="userSpaceOnUse">
<stop stop-color="#EBEBEB"/>
<stop offset="1" stop-color="white"/>
</linearGradient>
<linearGradient id="paint27_linear_23_2424" x1="511.637" y1="259" x2="511.637" y2="316" gradientUnits="userSpaceOnUse">
<stop stop-color="#5C5C5C"/>
<stop offset="1" stop-color="#5C5C5C" stop-opacity="0"/>
</linearGradient>
<linearGradient id="paint28_linear_23_2424" x1="446.182" y1="316" x2="446.182" y2="446" gradientUnits="userSpaceOnUse">
<stop stop-color="#EBEBEB"/>
<stop offset="1" stop-color="white"/>
</linearGradient>
<linearGradient id="paint29_linear_23_2424" x1="446.182" y1="316" x2="446.182" y2="446" gradientUnits="userSpaceOnUse">
<stop stop-color="#EBEBEB"/>
<stop offset="1" stop-color="#EBEBEB" stop-opacity="0.24"/>
</linearGradient>
<linearGradient id="paint30_linear_23_2424" x1="511.637" y1="316" x2="511.637" y2="446" gradientUnits="userSpaceOnUse">
<stop stop-color="white"/>
<stop offset="1" stop-color="#EBEBEB"/>
</linearGradient>
<linearGradient id="paint31_linear_23_2424" x1="511.637" y1="316" x2="511.637" y2="446" gradientUnits="userSpaceOnUse">
<stop stop-color="#EBEBEB"/>
<stop offset="1" stop-color="#EBEBEB" stop-opacity="0.24"/>
</linearGradient>
<linearGradient id="paint32_linear_23_2424" x1="577.091" y1="136" x2="577.091" y2="198" gradientUnits="userSpaceOnUse">
<stop stop-color="#EBEBEB"/>
<stop offset="1" stop-color="white"/>
</linearGradient>
<linearGradient id="paint33_linear_23_2424" x1="577.091" y1="136" x2="577.091" y2="198" gradientUnits="userSpaceOnUse">
<stop stop-color="#5C5C5C"/>
<stop offset="1" stop-color="#5C5C5C" stop-opacity="0"/>
</linearGradient>
<linearGradient id="paint34_linear_23_2424" x1="642.546" y1="136" x2="642.546" y2="198" gradientUnits="userSpaceOnUse">
<stop stop-color="#EBEBEB"/>
<stop offset="1" stop-color="white"/>
</linearGradient>
<linearGradient id="paint35_linear_23_2424" x1="642.546" y1="136" x2="642.546" y2="198" gradientUnits="userSpaceOnUse">
<stop stop-color="#5C5C5C"/>
<stop offset="1" stop-color="#5C5C5C" stop-opacity="0"/>
</linearGradient>
<linearGradient id="paint36_linear_23_2424" x1="577.091" y1="198" x2="577.091" y2="446" gradientUnits="userSpaceOnUse">
<stop stop-color="#EBEBEB"/>
<stop offset="1" stop-color="white"/>
</linearGradient>
<linearGradient id="paint37_linear_23_2424" x1="577.091" y1="198" x2="577.091" y2="446" gradientUnits="userSpaceOnUse">
<stop stop-color="#EBEBEB"/>
<stop offset="1" stop-color="#EBEBEB" stop-opacity="0.24"/>
</linearGradient>
<linearGradient id="paint38_linear_23_2424" x1="642.546" y1="198" x2="642.546" y2="446" gradientUnits="userSpaceOnUse">
<stop stop-color="white"/>
<stop offset="1" stop-color="#EBEBEB"/>
</linearGradient>
<linearGradient id="paint39_linear_23_2424" x1="642.546" y1="198" x2="642.546" y2="446" gradientUnits="userSpaceOnUse">
<stop stop-color="#EBEBEB"/>
<stop offset="1" stop-color="#EBEBEB" stop-opacity="0.24"/>
</linearGradient>
<linearGradient id="paint40_linear_23_2424" x1="708" y1="7" x2="708.442" y2="266" gradientUnits="userSpaceOnUse">
<stop stop-color="#FDD4B8"/>
<stop offset="1" stop-color="white"/>
</linearGradient>
<linearGradient id="paint41_linear_23_2424" x1="708" y1="7" x2="708" y2="120" gradientUnits="userSpaceOnUse">
<stop stop-color="#FCA165"/>
<stop offset="1" stop-color="#D1D1D1" stop-opacity="0"/>
</linearGradient>
<linearGradient id="paint42_linear_23_2424" x1="773.455" y1="7" x2="773.455" y2="120" gradientUnits="userSpaceOnUse">
<stop stop-color="#FDD4B8"/>
<stop offset="1" stop-color="white"/>
</linearGradient>
<linearGradient id="paint43_linear_23_2424" x1="773.455" y1="7" x2="773.455" y2="120" gradientUnits="userSpaceOnUse">
<stop stop-color="#FCA165"/>
<stop offset="1" stop-color="#FCA165" stop-opacity="0"/>
</linearGradient>
<linearGradient id="paint44_linear_23_2424" x1="708.396" y1="120.583" x2="708.396" y2="625.621" gradientUnits="userSpaceOnUse">
<stop stop-color="#F94D00"/>
<stop offset="1" stop-color="white"/>
</linearGradient>
<linearGradient id="paint45_linear_23_2424" x1="708" y1="120" x2="708" y2="446" gradientUnits="userSpaceOnUse">
<stop stop-color="#F94D00"/>
<stop offset="1" stop-color="#FA7319" stop-opacity="0"/>
</linearGradient>
<linearGradient id="paint46_linear_23_2424" x1="773.455" y1="120" x2="760.501" y2="528.056" gradientUnits="userSpaceOnUse">
<stop stop-color="white"/>
<stop offset="1" stop-color="#F94D00"/>
</linearGradient>
<linearGradient id="paint47_linear_23_2424" x1="773.455" y1="120" x2="773.455" y2="446" gradientUnits="userSpaceOnUse">
<stop stop-color="#FA7319"/>
<stop offset="1" stop-color="#FA7319" stop-opacity="0"/>
</linearGradient>
<linearGradient id="paint48_linear_23_2424" x1="839.41" y1="110" x2="839.41" y2="234" gradientUnits="userSpaceOnUse">
<stop stop-color="#EBEBEB"/>
<stop offset="1" stop-color="white"/>
</linearGradient>
<linearGradient id="paint49_linear_23_2424" x1="839.41" y1="110" x2="839.41" y2="234" gradientUnits="userSpaceOnUse">
<stop stop-color="#5C5C5C"/>
<stop offset="1" stop-color="#5C5C5C" stop-opacity="0"/>
</linearGradient>
<linearGradient id="paint50_linear_23_2424" x1="904.864" y1="110" x2="904.864" y2="234" gradientUnits="userSpaceOnUse">
<stop stop-color="#EBEBEB"/>
<stop offset="1" stop-color="white"/>
</linearGradient>
<linearGradient id="paint51_linear_23_2424" x1="904.864" y1="110" x2="904.864" y2="234" gradientUnits="userSpaceOnUse">
<stop stop-color="#5C5C5C"/>
<stop offset="1" stop-color="#5C5C5C" stop-opacity="0"/>
</linearGradient>
<linearGradient id="paint52_linear_23_2424" x1="839.41" y1="234" x2="839.41" y2="446" gradientUnits="userSpaceOnUse">
<stop stop-color="#EBEBEB"/>
<stop offset="1" stop-color="white"/>
</linearGradient>
<linearGradient id="paint53_linear_23_2424" x1="839.41" y1="234" x2="839.41" y2="446" gradientUnits="userSpaceOnUse">
<stop stop-color="#EBEBEB"/>
<stop offset="1" stop-color="#EBEBEB" stop-opacity="0.24"/>
</linearGradient>
<linearGradient id="paint54_linear_23_2424" x1="904.864" y1="234" x2="904.864" y2="446" gradientUnits="userSpaceOnUse">
<stop stop-color="white"/>
<stop offset="1" stop-color="#EBEBEB"/>
</linearGradient>
<linearGradient id="paint55_linear_23_2424" x1="904.864" y1="234" x2="904.864" y2="446" gradientUnits="userSpaceOnUse">
<stop stop-color="#EBEBEB"/>
<stop offset="1" stop-color="#EBEBEB" stop-opacity="0.24"/>
</linearGradient>
<linearGradient id="paint56_linear_23_2424" x1="969.818" y1="259" x2="969.818" y2="316" gradientUnits="userSpaceOnUse">
<stop stop-color="#EBEBEB"/>
<stop offset="1" stop-color="white"/>
</linearGradient>
<linearGradient id="paint57_linear_23_2424" x1="969.818" y1="259" x2="969.818" y2="316" gradientUnits="userSpaceOnUse">
<stop stop-color="#5C5C5C"/>
<stop offset="1" stop-color="#5C5C5C" stop-opacity="0"/>
</linearGradient>
<linearGradient id="paint58_linear_23_2424" x1="1035.27" y1="259" x2="1035.27" y2="316" gradientUnits="userSpaceOnUse">
<stop stop-color="#EBEBEB"/>
<stop offset="1" stop-color="white"/>
</linearGradient>
<linearGradient id="paint59_linear_23_2424" x1="1035.27" y1="259" x2="1035.27" y2="316" gradientUnits="userSpaceOnUse">
<stop stop-color="#5C5C5C"/>
<stop offset="1" stop-color="#5C5C5C" stop-opacity="0"/>
</linearGradient>
<linearGradient id="paint60_linear_23_2424" x1="969.818" y1="316" x2="969.818" y2="446" gradientUnits="userSpaceOnUse">
<stop stop-color="#EBEBEB"/>
<stop offset="1" stop-color="white"/>
</linearGradient>
<linearGradient id="paint61_linear_23_2424" x1="969.818" y1="316" x2="969.818" y2="446" gradientUnits="userSpaceOnUse">
<stop stop-color="#EBEBEB"/>
<stop offset="1" stop-color="#EBEBEB" stop-opacity="0.24"/>
</linearGradient>
<linearGradient id="paint62_linear_23_2424" x1="1035.27" y1="316" x2="1035.27" y2="446" gradientUnits="userSpaceOnUse">
<stop stop-color="white"/>
<stop offset="1" stop-color="#EBEBEB"/>
</linearGradient>
<linearGradient id="paint63_linear_23_2424" x1="1035.27" y1="316" x2="1035.27" y2="446" gradientUnits="userSpaceOnUse">
<stop stop-color="#EBEBEB"/>
<stop offset="1" stop-color="#EBEBEB" stop-opacity="0.24"/>
</linearGradient>
<linearGradient id="paint64_linear_23_2424" x1="1100.73" y1="259" x2="1100.73" y2="316" gradientUnits="userSpaceOnUse">
<stop stop-color="#EBEBEB"/>
<stop offset="1" stop-color="white"/>
</linearGradient>
<linearGradient id="paint65_linear_23_2424" x1="1100.73" y1="259" x2="1100.73" y2="316" gradientUnits="userSpaceOnUse">
<stop stop-color="#5C5C5C"/>
<stop offset="1" stop-color="#5C5C5C" stop-opacity="0"/>
</linearGradient>
<linearGradient id="paint66_linear_23_2424" x1="1166.18" y1="259" x2="1166.18" y2="316" gradientUnits="userSpaceOnUse">
<stop stop-color="#EBEBEB"/>
<stop offset="1" stop-color="white"/>
</linearGradient>
<linearGradient id="paint67_linear_23_2424" x1="1166.18" y1="259" x2="1166.18" y2="316" gradientUnits="userSpaceOnUse">
<stop stop-color="#5C5C5C"/>
<stop offset="1" stop-color="#5C5C5C" stop-opacity="0"/>
</linearGradient>
<linearGradient id="paint68_linear_23_2424" x1="1100.73" y1="316" x2="1100.73" y2="446" gradientUnits="userSpaceOnUse">
<stop stop-color="#EBEBEB"/>
<stop offset="1" stop-color="white"/>
</linearGradient>
<linearGradient id="paint69_linear_23_2424" x1="1100.73" y1="316" x2="1100.73" y2="446" gradientUnits="userSpaceOnUse">
<stop stop-color="#EBEBEB"/>
<stop offset="1" stop-color="#EBEBEB" stop-opacity="0.24"/>
</linearGradient>
<linearGradient id="paint70_linear_23_2424" x1="1166.18" y1="316" x2="1166.18" y2="446" gradientUnits="userSpaceOnUse">
<stop stop-color="white"/>
<stop offset="1" stop-color="#EBEBEB"/>
</linearGradient>
<linearGradient id="paint71_linear_23_2424" x1="1166.18" y1="316" x2="1166.18" y2="446" gradientUnits="userSpaceOnUse">
<stop stop-color="#EBEBEB"/>
<stop offset="1" stop-color="#EBEBEB" stop-opacity="0.24"/>
</linearGradient>
<linearGradient id="paint72_linear_23_2424" x1="1232.14" y1="235" x2="1232.14" y2="291" gradientUnits="userSpaceOnUse">
<stop stop-color="#EBEBEB"/>
<stop offset="1" stop-color="white"/>
</linearGradient>
<linearGradient id="paint73_linear_23_2424" x1="1232.14" y1="235" x2="1232.14" y2="291" gradientUnits="userSpaceOnUse">
<stop stop-color="#5C5C5C"/>
<stop offset="1" stop-color="#5C5C5C" stop-opacity="0"/>
</linearGradient>
<linearGradient id="paint74_linear_23_2424" x1="1297.59" y1="235" x2="1297.59" y2="291" gradientUnits="userSpaceOnUse">
<stop stop-color="#EBEBEB"/>
<stop offset="1" stop-color="white"/>
</linearGradient>
<linearGradient id="paint75_linear_23_2424" x1="1297.59" y1="235" x2="1297.59" y2="291" gradientUnits="userSpaceOnUse">
<stop stop-color="#5C5C5C"/>
<stop offset="1" stop-color="#5C5C5C" stop-opacity="0"/>
</linearGradient>
<linearGradient id="paint76_linear_23_2424" x1="1232.14" y1="291" x2="1232.14" y2="446" gradientUnits="userSpaceOnUse">
<stop stop-color="#EBEBEB"/>
<stop offset="1" stop-color="white"/>
</linearGradient>
<linearGradient id="paint77_linear_23_2424" x1="1232.14" y1="291" x2="1232.14" y2="446" gradientUnits="userSpaceOnUse">
<stop stop-color="#EBEBEB"/>
<stop offset="1" stop-color="#EBEBEB" stop-opacity="0.24"/>
</linearGradient>
<linearGradient id="paint78_linear_23_2424" x1="1297.59" y1="291" x2="1297.59" y2="446" gradientUnits="userSpaceOnUse">
<stop stop-color="white"/>
<stop offset="1" stop-color="#EBEBEB"/>
</linearGradient>
<linearGradient id="paint79_linear_23_2424" x1="1297.59" y1="291" x2="1297.59" y2="446" gradientUnits="userSpaceOnUse">
<stop stop-color="#EBEBEB"/>
<stop offset="1" stop-color="#EBEBEB" stop-opacity="0.24"/>
</linearGradient>
<linearGradient id="paint80_linear_23_2424" x1="1363.05" y1="235" x2="1363.05" y2="291" gradientUnits="userSpaceOnUse">
<stop stop-color="#EBEBEB"/>
<stop offset="1" stop-color="white"/>
</linearGradient>
<linearGradient id="paint81_linear_23_2424" x1="1363.05" y1="235" x2="1363.05" y2="291" gradientUnits="userSpaceOnUse">
<stop stop-color="#5C5C5C"/>
<stop offset="1" stop-color="#5C5C5C" stop-opacity="0"/>
</linearGradient>
<linearGradient id="paint82_linear_23_2424" x1="1428.5" y1="235" x2="1428.5" y2="291" gradientUnits="userSpaceOnUse">
<stop stop-color="#EBEBEB"/>
<stop offset="1" stop-color="white"/>
</linearGradient>
<linearGradient id="paint83_linear_23_2424" x1="1428.5" y1="235" x2="1428.5" y2="291" gradientUnits="userSpaceOnUse">
<stop stop-color="#5C5C5C"/>
<stop offset="1" stop-color="#5C5C5C" stop-opacity="0"/>
</linearGradient>
<linearGradient id="paint84_linear_23_2424" x1="1363.05" y1="291" x2="1363.05" y2="446" gradientUnits="userSpaceOnUse">
<stop stop-color="#EBEBEB"/>
<stop offset="1" stop-color="white"/>
</linearGradient>
<linearGradient id="paint85_linear_23_2424" x1="1363.05" y1="291" x2="1363.05" y2="446" gradientUnits="userSpaceOnUse">
<stop stop-color="#EBEBEB"/>
<stop offset="1" stop-color="#EBEBEB" stop-opacity="0.24"/>
</linearGradient>
<linearGradient id="paint86_linear_23_2424" x1="1428.5" y1="291" x2="1428.5" y2="446" gradientUnits="userSpaceOnUse">
<stop stop-color="white"/>
<stop offset="1" stop-color="#EBEBEB"/>
</linearGradient>
<linearGradient id="paint87_linear_23_2424" x1="1428.5" y1="291" x2="1428.5" y2="446" gradientUnits="userSpaceOnUse">
<stop stop-color="#EBEBEB"/>
<stop offset="1" stop-color="#EBEBEB" stop-opacity="0.24"/>
</linearGradient>
</defs>
</svg>
